<svg width="94" height="90" viewBox="0 0 94 90" fill="none" xmlns="http://www.w3.org/2000/svg">
<ellipse cx="47.4166" cy="46.3915" rx="41.36" ry="40.3573" fill="black"/>
<mask id="mask0_208_530" style="mask-type:luminance" maskUnits="userSpaceOnUse" x="0" y="0" width="94" height="90">
<path d="M0 0H94V89.2373H0V0Z" fill="white"/>
</mask>
<g mask="url(#mask0_208_530)">
<path fill-rule="evenodd" clip-rule="evenodd" d="M22.3772 5.54336C23.0287 5.54336 23.5666 6.07733 23.5666 6.73402C23.5666 7.39202 23.0287 7.926 22.3772 7.926C21.7166 7.926 21.1787 7.39202 21.1787 6.73402C21.1787 6.07733 21.7166 5.54336 22.3772 5.54336ZM1.19717 50.3618C1.85778 50.3618 2.39437 50.8957 2.39437 51.5537C2.39437 52.2117 1.85778 52.7457 1.19717 52.7457C0.537868 52.7457 0.0078125 52.2117 0.0078125 51.5537C0.0078125 50.8957 0.537868 50.3618 1.19717 50.3618ZM81.5228 16.5231C82.1834 16.5231 82.7135 17.0571 82.7135 17.7137C82.7135 18.3717 82.1834 18.9057 81.5228 18.9057C80.8635 18.9057 80.3256 18.3717 80.3256 17.7137C80.3256 17.0571 80.8635 16.5231 81.5228 16.5231ZM61.4342 1.70502C62.0948 1.70502 62.6314 2.239 62.6314 2.897C62.6314 3.555 62.0948 4.08897 61.4342 4.08897C60.7814 4.08897 60.2448 3.555 60.2448 2.897C60.2448 2.239 60.7814 1.70502 61.4342 1.70502ZM93.1762 48.4047C93.5979 48.4047 93.9438 48.7311 93.9438 49.1319C93.9438 49.5341 93.5979 49.8604 93.1762 49.8604C92.7545 49.8604 92.4164 49.5341 92.4164 49.1319C92.4164 48.7311 92.7545 48.4047 93.1762 48.4047ZM83.9642 20.0063C84.3872 20.0063 84.724 20.3314 84.724 20.7335C84.724 21.1356 84.3872 21.462 83.9642 21.462C83.5425 21.462 83.1965 21.1356 83.1965 20.7335C83.1965 20.3314 83.5425 20.0063 83.9642 20.0063ZM25.8304 4.69997C26.2534 4.69997 26.5981 5.02636 26.5981 5.42847C26.5981 5.83058 26.2534 6.15697 25.8304 6.15697C25.4087 6.15697 25.0706 5.83058 25.0706 5.42847C25.0706 5.02636 25.4087 4.69997 25.8304 4.69997ZM18.9227 5.82405C19.3444 5.82405 19.6904 6.15044 19.6904 6.55125C19.6904 6.95336 19.3444 7.28105 18.9227 7.28105C18.4997 7.28105 18.1629 6.95336 18.1629 6.55125C18.1629 6.15044 18.4997 5.82405 18.9227 5.82405ZM2.41003 38.7841C2.83303 38.7841 3.1777 39.1092 3.1777 39.5113C3.1777 39.9134 2.83303 40.2398 2.41003 40.2398C1.98834 40.2398 1.6502 39.9134 1.6502 39.5113C1.6502 39.1092 1.98834 38.7841 2.41003 38.7841ZM10.2251 71.846C10.6468 71.846 10.9928 72.1711 10.9928 72.5732C10.9928 72.9753 10.6468 73.3017 10.2251 73.3017C9.80209 73.3017 9.46526 72.9753 9.46526 72.5732C9.46526 72.1711 9.80209 71.846 10.2251 71.846ZM34.6207 87.7372C35.0424 87.7372 35.3884 88.0636 35.3884 88.4644C35.3884 88.8665 35.0424 89.1929 34.6207 89.1929C34.1977 89.1929 33.8609 88.8665 33.8609 88.4644C33.8609 88.0636 34.1977 87.7372 34.6207 87.7372ZM66.8692 85.7972C67.2909 85.7972 67.6291 86.1236 67.6291 86.5244C67.6291 86.9265 67.2909 87.2529 66.8692 87.2529C66.4462 87.2529 66.1016 86.9265 66.1016 86.5244C66.1016 86.1236 66.4462 85.7972 66.8692 85.7972ZM83.6417 73.0249C84.0647 73.0249 84.4094 73.3513 84.4094 73.7534C84.4094 74.1555 84.0647 74.4819 83.6417 74.4819C83.22 74.4819 82.8819 74.1555 82.8819 73.7534C82.8819 73.3513 83.22 73.0249 83.6417 73.0249ZM81.8231 75.1438C82.2448 75.1438 82.5907 75.4702 82.5907 75.8723C82.5907 76.2744 82.2448 76.5995 81.8231 76.5995C81.4079 76.5995 81.0632 76.2744 81.0632 75.8723C81.0632 75.4702 81.4079 75.1438 81.8231 75.1438ZM79.9039 77.2353C80.3256 77.2353 80.6637 77.5617 80.6637 77.9638C80.6637 78.3659 80.3256 78.6923 79.9039 78.6923C79.4809 78.6923 79.1362 78.3659 79.1362 77.9638C79.1362 77.5617 79.4809 77.2353 79.9039 77.2353ZM82.2213 77.5278C82.6443 77.5278 82.9889 77.8555 82.9889 78.2563C82.9889 78.6584 82.6443 78.9848 82.2213 78.9848C81.7996 78.9848 81.4614 78.6584 81.4614 78.2563C81.4614 77.8555 81.7996 77.5278 82.2213 77.5278ZM69.3485 84.865C69.7702 84.865 70.1083 85.1914 70.1083 85.5935C70.1083 85.9956 69.7702 86.322 69.3485 86.322C68.9268 86.322 68.5887 85.9956 68.5887 85.5935C68.5887 85.1914 68.9268 84.865 69.3485 84.865ZM70.876 83.5516C71.1071 83.5516 71.2833 83.7187 71.2833 83.9224C71.2833 84.1274 71.1071 84.2932 70.876 84.2932C70.654 84.2932 70.4765 84.1274 70.4765 83.9224C70.4765 83.7187 70.654 83.5516 70.876 83.5516ZM71.0992 85.1065C71.3212 85.1065 71.4974 85.2723 71.4974 85.4773C71.4974 85.681 71.3212 85.8468 71.0992 85.8468C70.8682 85.8468 70.6919 85.681 70.6919 85.4773C70.6919 85.2723 70.8682 85.1065 71.0992 85.1065ZM78.3229 78.409C78.5448 78.409 78.7211 78.5748 78.7211 78.7785C78.7211 78.9835 78.5448 79.1493 78.3229 79.1493C78.0918 79.1493 77.9155 78.9835 77.9155 78.7785C77.9155 78.5748 78.0918 78.409 78.3229 78.409ZM40.0779 1.35514C40.3012 1.35514 40.4853 1.52225 40.4853 1.72591C40.4853 1.92958 40.3012 2.09669 40.0779 2.09669C39.856 2.09669 39.6719 1.92958 39.6719 1.72591C39.6719 1.52225 39.856 1.35514 40.0779 1.35514ZM8.45215 21.915C8.67409 21.915 8.85034 22.0808 8.85034 22.2858C8.85034 22.4895 8.67409 22.6566 8.45215 22.6566C8.22106 22.6566 8.04481 22.4895 8.04481 22.2858C8.04481 22.0808 8.22106 21.915 8.45215 21.915ZM35.925 2.28339C36.1482 2.28339 36.3323 2.44919 36.3323 2.65286C36.3323 2.85783 36.1482 3.02364 35.925 3.02364C35.6952 3.02364 35.5189 2.85783 35.5189 2.65286C35.5189 2.44919 35.6952 2.28339 35.925 2.28339ZM40.7999 0.0117188C41.0232 0.0117188 41.2072 0.177524 41.2072 0.382497C41.2072 0.586163 41.0232 0.751969 40.7999 0.751969C40.578 0.751969 40.3926 0.586163 40.3926 0.382497C40.3926 0.177524 40.578 0.0117188 40.7999 0.0117188ZM1.45828 48.1058C1.68153 48.1058 1.86562 48.2716 1.86562 48.4766C1.86562 48.6802 1.68153 48.846 1.45828 48.846C1.23634 48.846 1.05095 48.6802 1.05095 48.4766C1.05095 48.2716 1.23634 48.1058 1.45828 48.1058ZM9.4039 69.7976C9.62584 69.7976 9.80993 69.9634 9.80993 70.1684C9.80993 70.3733 9.62584 70.5391 9.4039 70.5391C9.17281 70.5391 8.99656 70.3733 8.99656 70.1684C8.99656 69.9634 9.17281 69.7976 9.4039 69.7976ZM11.622 74.5798C11.8518 74.5798 12.0294 74.7456 12.0294 74.9506C12.0294 75.1543 11.8518 75.3201 11.622 75.3201C11.3988 75.3201 11.2147 75.1543 11.2147 74.9506C11.2147 74.7456 11.3988 74.5798 11.622 74.5798ZM91.9712 51.4297C92.1931 51.4297 92.3772 51.5968 92.3772 51.8005C92.3772 52.0055 92.1931 52.1713 91.9712 52.1713C91.7479 52.1713 91.5638 52.0055 91.5638 51.8005C91.5638 51.5968 91.7479 51.4297 91.9712 51.4297ZM90.428 34.6794C90.6499 34.6794 90.8275 34.8452 90.8275 35.0489C90.8275 35.2539 90.6499 35.4197 90.428 35.4197C90.1969 35.4197 90.0207 35.2539 90.0207 35.0489C90.0207 34.8452 90.1969 34.6794 90.428 34.6794ZM85.2306 22.5991C85.4538 22.5991 85.6379 22.7649 85.6379 22.9686C85.6379 23.1736 85.4538 23.3394 85.2306 23.3394C85.0086 23.3394 84.8245 23.1736 84.8245 22.9686C84.8245 22.7649 85.0086 22.5991 85.2306 22.5991ZM92.6383 45.0103C93.0613 45.0103 93.406 45.3367 93.406 45.7388C93.406 46.1409 93.0613 46.4673 92.6383 46.4673C92.2166 46.4673 91.8785 46.1409 91.8785 45.7388C91.8785 45.3367 92.2166 45.0103 92.6383 45.0103ZM42.612 0.522191C43.0259 0.522191 43.3718 0.84858 43.3718 1.25069C43.3718 1.6528 43.0259 1.97919 42.612 1.97919C42.189 1.97919 41.8443 1.6528 41.8443 1.25069C41.8443 0.84858 42.189 0.522191 42.612 0.522191ZM3.5772 45.9281C3.5772 45.6774 3.5772 45.4242 3.5772 45.1722C3.5772 21.8197 22.4921 2.85914 45.7976 2.85914C46.1044 2.85914 46.419 2.86305 46.7258 2.87089C46.9869 2.86566 47.2402 2.86305 47.5013 2.86305C59.4223 2.86305 70.154 8.255 77.5696 16.8299C85.8912 24.3799 91.0951 35.0959 91.0951 46.9739C91.0951 69.8146 71.8656 88.36 48.1841 88.36C42.0049 88.36 36.1325 87.0988 30.8202 84.8284C14.9003 78.9626 3.5772 64.0205 3.5772 46.5352C3.5772 46.3328 3.5772 46.1305 3.5772 45.9281ZM10.9157 26.9714C7.48473 32.8934 5.53423 39.715 5.53423 46.9739C5.53423 46.9961 5.53423 47.0182 5.53423 47.0404C5.77315 66.4762 19.8053 82.6495 38.3898 86.4056C20.4045 82.0842 6.97817 65.2529 6.97817 45.1722C6.97817 38.6575 8.39079 32.4848 10.9157 26.9714ZM80.3256 20.8288C79.4274 19.5063 78.4521 18.2399 77.4168 17.0349C77.2549 16.8899 77.0943 16.7463 76.9325 16.604C78.1532 17.937 79.289 19.3483 80.3256 20.8288ZM41.8208 87.3025C43.6473 87.5401 45.513 87.6641 47.4099 87.6641C70.5235 87.6641 89.2843 69.3328 89.2843 46.7532C89.2843 39.6419 87.4265 32.9509 84.1483 27.1229C86.3285 31.9286 87.6641 37.2318 87.9566 42.8222C88.0023 43.599 88.0179 44.3836 88.0179 45.1722C88.0179 45.4242 88.0179 45.6774 88.0179 45.9281C88.0179 46.1305 88.0179 46.3328 88.0179 46.5352C88.0179 47.3068 87.9944 48.0731 87.9566 48.8343C87.2503 61.4159 80.7943 72.4909 71.1449 79.5227C64.4892 84.5308 56.3217 87.4813 47.5013 87.4813C47.3486 87.4813 47.1945 87.48 47.0405 87.4787C46.9099 87.48 46.7793 87.48 46.6488 87.48C46.5652 87.48 46.4804 87.48 46.3955 87.48C46.1971 87.4826 45.9973 87.4839 45.7976 87.4839C45.0064 87.4839 44.2231 87.4617 43.4489 87.4187C42.9031 87.3899 42.3587 87.3508 41.8208 87.3025ZM41.2529 3.36439C22.1996 5.42455 6.95467 20.2857 4.26001 39.1797C6.14915 29.0773 11.8675 20.2609 19.9045 14.1979C25.7011 8.56833 33.0697 4.68822 41.2529 3.36439ZM81.2082 22.607C75.6817 15.2436 67.6983 9.74986 58.4484 7.28236C73.1255 11.6037 84.4015 23.7807 87.296 38.8794C86.4056 32.9626 84.2867 27.448 81.2082 22.607ZM73.6085 76.9964C75.1674 75.6582 76.6257 74.2104 77.9612 72.6646C78.7981 71.6554 79.5893 70.6044 80.3256 69.5156C78.3908 72.2677 76.1348 74.7796 73.6085 76.9964ZM87.7568 45.8015C87.3573 24.0744 69.3642 6.47944 47.0183 5.86061C32.4483 6.23922 19.6904 13.6757 12.297 24.7507C9.07359 30.7993 7.23145 37.7632 7.23145 45.1722C7.23145 68.069 24.7951 86.7202 46.6031 87.2176C69.1879 86.7907 87.4265 68.4529 87.7568 45.8015ZM77.8007 66.9932C78.46 66.9932 78.9978 67.5272 78.9978 68.1852C78.9978 68.8432 78.46 69.3772 77.8007 69.3772C77.1479 69.3772 76.61 68.8432 76.61 68.1852C76.61 67.5272 77.1479 66.9932 77.8007 66.9932ZM61.2501 11.6612C61.4721 11.6612 61.6562 11.8257 61.6562 12.0307C61.6562 12.2356 61.4721 12.4014 61.2501 12.4014C61.0269 12.4014 60.8428 12.2356 60.8428 12.0307C60.8428 11.8257 61.0269 11.6612 61.2501 11.6612ZM76.5408 70.3942C76.764 70.3942 76.9481 70.56 76.9481 70.765C76.9481 70.9687 76.764 71.1358 76.5408 71.1358C76.3188 71.1358 76.1348 70.9687 76.1348 70.765C76.1348 70.56 76.3188 70.3942 76.5408 70.3942ZM19.3979 20.7022C19.6212 20.7022 19.8053 20.8693 19.8053 21.0729C19.8053 21.2779 19.6212 21.4437 19.3979 21.4437C19.176 21.4437 18.9919 21.2779 18.9919 21.0729C18.9919 20.8693 19.176 20.7022 19.3979 20.7022ZM10.7395 32.5657C11.3988 32.5657 11.9367 33.0997 11.9367 33.759C11.9367 34.4157 11.3988 34.9497 10.7395 34.9497C10.0867 34.9497 9.54881 34.4157 9.54881 33.759C9.54881 33.0997 10.0867 32.5657 10.7395 32.5657ZM84.7162 35.7356C85.1392 35.7356 85.4838 36.0607 85.4838 36.4628C85.4838 36.8649 85.1392 37.1913 84.7162 37.1913C84.2945 37.1913 83.9564 36.8649 83.9564 36.4628C83.9564 36.0607 84.2945 35.7356 84.7162 35.7356ZM83.7566 33.0775C84.1718 33.0775 84.5164 33.4052 84.5164 33.806C84.5164 34.2081 84.1718 34.5345 83.7566 34.5345C83.3349 34.5345 82.9889 34.2081 82.9889 33.806C82.9889 33.4052 83.3349 33.0775 83.7566 33.0775ZM16.9422 68.9542C17.3639 68.9542 17.7098 69.2806 17.7098 69.6827C17.7098 70.0848 17.3639 70.4112 16.9422 70.4112C16.5192 70.4112 16.1823 70.0848 16.1823 69.6827C16.1823 69.2806 16.5192 68.9542 16.9422 68.9542ZM15.1222 66.7008C15.5452 66.7008 15.8821 67.0272 15.8821 67.428C15.8821 67.8301 15.5452 68.1565 15.1222 68.1565C14.7005 68.1565 14.3624 67.8301 14.3624 67.428C14.3624 67.0272 14.7005 66.7008 15.1222 66.7008ZM8.89734 48.269C9.31904 48.269 9.66501 48.5954 9.66501 48.9962C9.66501 49.3996 9.31904 49.726 8.89734 49.726C8.47434 49.726 8.13751 49.3996 8.13751 48.9962C8.13751 48.5954 8.47434 48.269 8.89734 48.269ZM12.0372 35.9641C12.2591 35.9641 12.4432 36.1299 12.4432 36.3349C12.4432 36.5386 12.2591 36.7044 12.0372 36.7044C11.814 36.7044 11.6299 36.5386 11.6299 36.3349C11.6299 36.1299 11.814 35.9641 12.0372 35.9641ZM60.4981 9.60233C60.9198 9.60233 61.258 9.92872 61.258 10.3308C61.258 10.7329 60.9198 11.058 60.4981 11.058C60.0751 11.058 59.7305 10.7329 59.7305 10.3308C59.7305 9.92872 60.0751 9.60233 60.4981 9.60233ZM80.0723 64.9487C80.494 64.9487 80.8322 65.2751 80.8322 65.6759C80.8322 66.0781 80.494 66.4057 80.0723 66.4057C79.6506 66.4057 79.3125 66.0781 79.3125 65.6759C79.3125 65.2751 79.6506 64.9487 80.0723 64.9487ZM45.4216 7.30325C45.6435 7.30325 45.8276 7.46905 45.8276 7.67272C45.8276 7.87769 45.6435 8.0435 45.4216 8.0435C45.1983 8.0435 45.0142 7.87769 45.0142 7.67272C45.0142 7.46905 45.1983 7.30325 45.4216 7.30325ZM35.1965 81.3517C35.8558 81.3517 36.3937 81.8857 36.3937 82.5437C36.3937 83.2004 35.8558 83.7344 35.1965 83.7344C34.5358 83.7344 34.0058 83.2004 34.0058 82.5437C34.0058 81.8857 34.5358 81.3517 35.1965 81.3517ZM17.6485 21.3549C18.0623 21.3549 18.4083 21.6813 18.4083 22.0834C18.4083 22.4856 18.0623 22.8119 17.6485 22.8119C17.2255 22.8119 16.8808 22.4856 16.8808 22.0834C16.8808 21.6813 17.2255 21.3549 17.6485 21.3549ZM10.2173 36.4354C10.639 36.4354 10.9849 36.7618 10.9849 37.1639C10.9849 37.566 10.639 37.8924 10.2173 37.8924C9.79556 37.8924 9.45742 37.566 9.45742 37.1639C9.45742 36.7618 9.79556 36.4354 10.2173 36.4354ZM86.0831 46.0091C86.305 46.0091 86.4891 46.1749 86.4891 46.3798C86.4891 46.5848 86.305 46.7493 86.0831 46.7493C85.8598 46.7493 85.6758 46.5848 85.6758 46.3798C85.6758 46.1749 85.8598 46.0091 86.0831 46.0091ZM18.2086 19.2373C18.6303 19.2373 18.9762 19.5637 18.9762 19.9658C18.9762 20.3666 18.6303 20.6943 18.2086 20.6943C17.7856 20.6943 17.4487 20.3666 17.4487 19.9658C17.4487 19.5637 17.7856 19.2373 18.2086 19.2373ZM38.1052 83.3257C38.5282 83.3257 38.8651 83.6521 38.8651 84.0542C38.8651 84.4564 38.5282 84.7814 38.1052 84.7814C37.6835 84.7814 37.3376 84.4564 37.3376 84.0542C37.3376 83.6521 37.6835 83.3257 38.1052 83.3257ZM62.3781 10.5462C62.6014 10.5462 62.7855 10.7121 62.7855 10.917C62.7855 11.122 62.6014 11.2878 62.3781 11.2878C62.1562 11.2878 61.9721 11.122 61.9721 10.917C61.9721 10.7121 62.1562 10.5462 62.3781 10.5462ZM36.0255 6.95466C30.1218 8.32158 24.7102 10.8974 20.0664 14.3976C18.4997 15.9212 17.0492 17.5741 15.7293 19.3379C21.0481 13.425 28.0642 9.04355 36.0255 6.95466ZM75.0903 15.07C70.5613 11.515 65.2647 8.83727 59.4772 7.30586C67.2831 9.58666 74.1464 14.0216 79.336 19.9019C78.0383 18.1837 76.6257 16.5688 75.0903 15.07ZM75.9729 15.4499C70.1618 9.37777 62.5857 5.15039 54.1257 3.68425C62.2554 5.31619 69.5482 9.29291 75.2666 14.8794C75.5055 15.0674 75.7431 15.2567 75.9729 15.4499ZM35.5646 86.2698C39.557 87.4604 43.7935 88.1015 48.1841 88.1015C71.7207 88.1015 90.8353 69.6736 90.8353 46.9739C90.8353 35.9171 86.2972 25.8748 78.9287 18.4814C80.4026 20.3666 81.7147 22.3863 82.8662 24.5196C87.0884 30.9351 89.5376 38.5661 89.5376 46.7532C89.5376 69.4725 70.6606 87.9187 47.4099 87.9187C43.3105 87.9187 39.3416 87.3456 35.5947 86.2763C35.5881 86.2737 35.5725 86.2711 35.5646 86.2698ZM5.01331 56.1441C7.06173 64.343 11.6756 71.5757 17.9853 76.9964C11.7905 71.5588 7.20012 64.3404 5.01331 56.1441ZM73.3252 13.4407C66.1394 7.17661 56.8125 3.32 46.6031 3.12677C37.0765 3.3448 28.3645 7.02386 21.5704 13.0072C28.4258 8.33333 36.7853 5.58905 45.7976 5.58905C45.966 5.58905 46.1279 5.59036 46.2963 5.59166C46.4112 5.59036 46.5261 5.59036 46.6488 5.59036C46.7415 5.59036 46.8407 5.59036 46.9412 5.59166C47.094 5.59036 47.248 5.58905 47.4099 5.58905C47.5092 5.58905 47.6084 5.58905 47.7011 5.59036C47.8617 5.58775 48.0235 5.58775 48.1841 5.58775C57.5724 5.58775 66.2543 8.50044 73.3252 13.4407ZM18.4775 15.6549C9.69504 22.9712 4.06026 33.7512 3.83831 45.8015C4.05373 60.3179 11.622 73.0641 22.9751 80.4574C12.2513 72.9309 5.27312 60.7305 5.27312 46.9739C5.27312 46.842 5.27312 46.7101 5.27312 46.5783C5.27312 46.5065 5.27312 46.4334 5.27312 46.3616C5.32012 37.0059 8.5357 28.3854 13.9172 21.5051C15.2685 19.4149 16.796 17.4566 18.4775 15.6549Z" fill="#D6A553"/>
</g>
<path d="M52.5335 43.8256H52.9565V44.1755H45.3216V43.8256H45.7759C46.3608 43.8256 46.8687 43.622 47.3008 43.2146C47.7316 42.8047 47.9706 42.2955 48.0163 41.6897V32.5874H34.4698V41.7263C34.4698 44.9915 33.676 47.1848 32.0885 48.3063C31.3639 48.8207 30.4304 49.2058 29.2894 49.4604L29.1118 49.1471C30.1628 48.5857 30.9396 47.7227 31.4409 46.5569C31.9423 45.3897 32.1929 43.7812 32.1929 41.7263V22.19C32.1929 21.5842 31.9697 21.0711 31.5245 20.6494C31.0819 20.229 30.5584 20.0175 29.9526 20.0175H29.5348V19.6676H37.1645V20.0175H36.7101C36.1044 20.0175 35.5848 20.229 35.1539 20.6494C34.7218 21.0711 34.4933 21.5842 34.4698 22.19V31.5377H48.0163V22.8219C48.0398 19.8321 48.7069 17.7537 50.0164 16.5865C50.8062 15.8867 51.8781 15.3854 53.2333 15.0825L53.4108 15.3959C52.3585 15.9572 51.5752 16.8215 51.0608 17.9913C50.549 19.1585 50.2931 20.7682 50.2931 22.8219V41.6219C50.2931 42.2276 50.5086 42.7472 50.9407 43.1781C51.3715 43.6102 51.9029 43.8256 52.5335 43.8256Z" fill="#D6A553"/>
<path d="M46.2131 39.4491C47.7301 38.8199 49.1898 38.5039 50.5893 38.5039C51.7552 38.5039 52.9576 38.936 54.1979 39.799C54.8728 40.2664 55.6301 41.1764 56.4695 42.5302C57.0296 43.4637 57.7411 45.1557 58.6054 47.6062L62.8772 59.7218C63.859 62.4308 64.8564 64.5837 65.8695 66.1817C66.8853 67.7797 67.8135 68.9808 68.653 69.785C69.4951 70.5919 70.3711 71.1585 71.2798 71.4822C72.191 71.8086 72.943 71.9731 73.5358 71.9731C74.1311 71.9731 74.6638 71.9261 75.1338 71.8321L75.1651 72.1872C74.0436 72.5593 72.947 72.746 71.8751 72.746C70.8019 72.746 69.7288 72.4705 68.653 71.9209C67.5798 71.3739 66.5771 70.6101 65.645 69.6284C63.6357 67.5982 61.932 64.508 60.5324 60.3537L59.1694 56.3587H49.5762L47.1583 62.594C47.0434 62.8734 46.986 63.1528 46.986 63.4348C46.986 63.7142 47.1074 64.0119 47.3515 64.3278C47.5944 64.6411 47.9743 64.7978 48.49 64.7978H48.7668V65.1477H41.7324V64.7978H42.0458C42.6058 64.7978 43.1542 64.6294 43.6908 64.2912C44.2299 63.9544 44.6738 63.4452 45.0224 62.7664L53.707 41.9715C52.4458 40.175 50.8818 39.2768 49.0122 39.2768C48.1727 39.2768 47.2745 39.4517 46.3175 39.799L46.2131 39.4491ZM49.9574 55.309H58.8195L56.0518 47.1519C55.5152 45.5892 55.0243 44.3632 54.5791 43.4755L49.9574 55.309Z" fill="#D6A553"/>
<mask id="mask1_208_530" style="mask-type:luminance" maskUnits="userSpaceOnUse" x="50" y="31" width="18" height="27">
<path d="M50.8853 31.9585H67.9306V57.2758H50.8853V31.9585Z" fill="white"/>
</mask>
<g mask="url(#mask1_208_530)">
<path d="M65.6003 47.0494C65.4488 47.2452 65.3104 47.4528 65.1289 47.6264C65.0924 47.6643 65.0571 47.7048 65.0245 47.7466C64.9462 47.8419 64.8731 47.9437 64.7751 48.0233C64.7425 48.0534 64.7138 48.086 64.6877 48.1226C64.5532 48.2897 64.4031 48.4398 64.2386 48.5756C64.1498 48.65 64.0636 48.727 63.9761 48.8014C63.7999 48.9516 63.5988 49.0665 63.4108 49.1996C63.2659 49.3015 63.1184 49.4007 62.9722 49.5012C62.9343 49.5247 62.8991 49.5508 62.8664 49.5822C62.7228 49.7271 62.5583 49.8485 62.4043 49.983C62.2972 50.0757 62.198 50.1775 62.0948 50.2754C62.0426 50.3237 61.9878 50.3694 61.9369 50.4177C61.8468 50.5026 61.7476 50.577 61.6601 50.6671C61.5804 50.7493 61.4864 50.8185 61.3977 50.8929C61.2619 51.0078 61.1235 51.1175 60.9982 51.2454C60.9538 51.2885 60.9068 51.329 60.8585 51.3669C60.5216 51.6463 60.2174 51.9544 59.9733 52.3199C59.925 52.3943 59.8689 52.4635 59.8127 52.5327C59.6508 52.7364 59.532 52.9636 59.4563 53.2129C59.438 53.273 59.4158 53.3304 59.3962 53.3892C59.3662 53.4832 59.3453 53.5785 59.3362 53.6751C59.3166 53.8696 59.2918 54.0628 59.267 54.2574C59.237 54.4858 59.1913 54.713 59.1312 54.9349C59.1103 55.012 59.0934 55.0903 59.0816 55.1699C59.0594 55.3201 59.0268 55.4663 58.9824 55.6112C58.8766 55.9689 58.7696 56.3267 58.656 56.6818C58.609 56.8163 58.5568 56.9468 58.4967 57.0761C58.4732 57.1244 58.4445 57.1688 58.4092 57.2092C58.3897 57.2275 58.3675 57.2419 58.3427 57.2497C58.3048 57.268 58.2461 57.2366 58.2356 57.1975C58.2199 57.1453 58.2212 57.093 58.2434 57.0408C58.3884 56.734 58.4745 56.4089 58.5698 56.0851C58.6416 55.8384 58.7213 55.5929 58.78 55.3423C58.8244 55.153 58.8792 54.9637 58.9054 54.7691C58.9158 54.6999 58.9367 54.6308 58.9497 54.5616C58.9719 54.448 58.9941 54.3344 59.0124 54.2208C59.0503 53.9845 59.0829 53.7469 59.1221 53.5106C59.1743 53.1946 59.2435 52.8826 59.2814 52.5654C59.3218 52.2311 59.3949 51.9008 59.4054 51.5614C59.4067 51.4831 59.425 51.4034 59.438 51.3251C59.4615 51.1749 59.4876 51.0261 59.4759 50.8747C59.4759 50.8473 59.4785 50.8211 59.4824 50.795C59.5124 50.4582 59.5216 50.1214 59.5098 49.7845C59.5072 49.7663 59.5072 49.748 59.5098 49.731C59.5386 49.5717 59.5203 49.4124 59.5124 49.2532C59.4955 48.9411 59.4537 48.6356 59.3649 48.3354C59.3009 48.1226 59.2474 47.9071 59.2043 47.6891C59.1769 47.5403 59.1364 47.3954 59.0816 47.2544C58.9876 47.005 58.8936 46.7556 58.7709 46.518C58.6495 46.2804 58.5059 46.0572 58.3361 45.8496C58.2069 45.6929 58.0829 45.5297 57.9614 45.3665C57.8296 45.1877 57.6847 45.0206 57.528 44.8626C57.3883 44.7268 57.2591 44.5819 57.1376 44.4304C56.947 44.185 56.7381 43.9552 56.5436 43.7137C56.5214 43.6863 56.4992 43.6576 56.4783 43.6288C56.3321 43.4173 56.182 43.2084 56.0397 42.993C55.9652 42.8821 55.9 42.7659 55.8464 42.6444C55.7981 42.5309 55.7355 42.4225 55.6754 42.3128C55.5671 42.1092 55.4626 41.9042 55.3895 41.6836C55.3399 41.5399 55.2798 41.4016 55.2093 41.2684C55.1519 41.1483 55.0997 41.0256 55.0566 40.8989C54.9508 40.6065 54.8503 40.3127 54.7498 40.019C54.7289 39.9602 54.7145 39.8989 54.7002 39.8388C54.6466 39.6143 54.5787 39.3936 54.5396 39.1651C54.5161 39.0346 54.4847 38.9053 54.4482 38.7774C54.4142 38.6481 54.3868 38.5176 54.3672 38.3857C54.3307 38.1677 54.285 37.951 54.2367 37.7343C54.1701 37.4392 54.1231 37.1402 54.0709 36.8439C54.02 36.5553 53.9756 36.2655 53.9273 35.9757C53.9221 35.9221 53.9103 35.8699 53.8946 35.819C53.8555 35.7093 53.8385 35.5958 53.8228 35.4809C53.8202 35.4639 53.8176 35.4456 53.8137 35.4286C53.7458 35.1714 53.6857 34.9116 53.6296 34.6518C53.6074 34.5552 53.5539 34.4717 53.5017 34.3894C53.4429 34.3006 53.3881 34.2093 53.3319 34.1192C53.2667 34.0147 53.1844 33.9207 53.1048 33.8241C53.0251 33.7288 52.9429 33.6361 52.8397 33.5643C52.7954 33.5343 52.7549 33.5003 52.717 33.4612C52.5695 33.3045 52.3985 33.1792 52.2039 33.0878C52.1791 33.076 52.1569 33.0617 52.1361 33.046C51.9572 32.9128 51.7627 32.8045 51.5642 32.7053C51.4937 32.6687 51.4271 32.6256 51.3514 32.5969C51.2496 32.5577 51.1634 32.4964 51.0955 32.4115C51.0289 32.3293 50.9454 32.2601 50.9088 32.1543C50.8853 32.0877 50.9232 32.0016 50.9924 31.9833C51.0094 31.9794 51.0263 31.9754 51.0446 31.9715C51.0707 31.9676 51.0968 31.9663 51.1242 31.9663C51.1686 31.9663 51.213 31.9702 51.2561 31.9768C51.5277 32.0224 51.7992 32.0681 52.0695 32.123C52.1831 32.1452 52.2953 32.1739 52.4102 32.1752C52.5408 32.1765 52.6465 32.2418 52.7601 32.2927C52.7679 32.2966 52.7758 32.3005 52.7823 32.3071C52.8828 32.4193 53.0121 32.5029 53.093 32.6334C53.1309 32.6948 53.1753 32.7509 53.2092 32.8123C53.3594 33.0852 53.5291 33.3463 53.6622 33.627C53.7027 33.7066 53.7367 33.7876 53.7667 33.8711C53.7954 33.956 53.8385 34.033 53.8946 34.1035C54.0108 34.2602 54.1375 34.409 54.2746 34.5474C54.4782 34.7471 54.6754 34.9508 54.8986 35.1284C55.0096 35.2563 55.1401 35.3621 55.2629 35.4783C55.4247 35.6297 55.5788 35.7877 55.7446 35.9352C55.9378 36.1075 56.1089 36.2981 56.2603 36.507C56.3452 36.6206 56.43 36.7342 56.5162 36.8478C56.7016 37.0971 56.8687 37.3596 57.0162 37.6324C57.1154 37.8113 57.2186 37.9862 57.3217 38.1625C57.3322 38.1847 57.3478 38.1886 57.3687 38.1742C57.3831 38.1651 57.3935 38.152 57.3974 38.1351C57.4014 38.028 57.4053 37.9223 57.4014 37.8152C57.3948 37.5933 57.4066 37.3713 57.4183 37.1494C57.4249 37.0345 57.434 36.9196 57.4249 36.8034C57.4222 36.7329 57.4249 36.6624 57.4314 36.5906C57.4405 36.3961 57.4353 36.2002 57.417 36.0057C57.404 35.8556 57.3935 35.7041 57.3883 35.554C57.3805 35.3046 57.3439 35.0592 57.2995 34.8137C57.2617 34.6035 57.2264 34.3933 57.1912 34.1831C57.1624 33.9991 57.1154 33.8189 57.0515 33.6426C56.9823 33.4599 56.9301 33.2719 56.8739 33.0839C56.8478 32.9938 56.8596 32.9076 56.9066 32.8267C56.9366 32.7718 57.0097 32.7418 57.0658 32.7653C57.0985 32.7784 57.1298 32.7927 57.1598 32.811C57.3165 32.9128 57.4653 33.0238 57.592 33.1635C57.6742 33.2549 57.7656 33.3398 57.8518 33.4285C57.9379 33.5173 58.0084 33.6204 58.0868 33.7171C58.3688 34.0565 58.5581 34.4456 58.7435 34.8411C58.8871 35.1479 58.9954 35.4652 59.0894 35.7916C59.2409 36.3216 59.4184 36.8413 59.596 37.3635C59.7266 37.7421 59.8388 38.1246 59.9563 38.5058C60.0634 38.8544 60.1678 39.203 60.2971 39.5438C60.3506 39.6848 60.3898 39.831 60.4355 39.9746C60.5778 40.4133 60.7122 40.8545 60.8454 41.2971C60.912 41.5178 61.0034 41.7306 61.0843 41.946C61.1601 42.1457 61.2292 42.3455 61.2723 42.5557C61.3089 42.7293 61.3637 42.899 61.4081 43.0714C61.4956 43.4082 61.5361 43.7516 61.5517 44.0988C61.553 44.1158 61.5517 44.1341 61.5504 44.1524C61.5165 44.4069 61.4851 44.6628 61.446 44.9174C61.4277 45.0401 61.3977 45.1616 61.3702 45.283C61.3507 45.3691 61.3298 45.4553 61.3076 45.5402C61.258 45.7203 61.2071 45.9005 61.1561 46.0794C61.1 46.2843 61.0256 46.4841 60.9342 46.6773C60.8415 46.8692 60.7606 47.0664 60.6718 47.2596C60.5229 47.5808 60.3689 47.9006 60.2214 48.2244C60.0986 48.4999 59.9968 48.7832 59.8963 49.0678C59.8584 49.1774 59.8036 49.2819 59.7827 49.3942C59.7618 49.5064 59.7788 49.6239 59.7722 49.7388C59.7592 49.9869 59.7553 50.2363 59.7592 50.4843C59.767 50.9034 59.72 51.3186 59.6587 51.7311C59.6456 51.8199 59.6273 51.9061 59.6169 51.9948C59.6064 52.0914 59.5999 52.1894 59.5947 52.2873C59.5947 52.299 59.6104 52.3134 59.6208 52.3251C59.6234 52.3264 59.6391 52.3212 59.6443 52.3147C59.7957 52.1489 59.908 51.9583 60.0125 51.7624C60.0804 51.6371 60.1352 51.5066 60.2005 51.3799C60.3715 51.0574 60.4851 50.7102 60.6248 50.3746C60.6927 50.2114 60.7423 50.0404 60.801 49.8733C60.9146 49.5548 61.0373 49.2401 61.1679 48.9294C61.2397 48.7584 61.3076 48.5847 61.365 48.4072C61.446 48.1526 61.5321 47.9006 61.6196 47.6486C61.6549 47.5494 61.6979 47.4515 61.7436 47.3549C61.8285 47.1695 61.9238 46.988 62.0269 46.8131C62.0426 46.7909 62.057 46.7687 62.0687 46.7452C62.1418 46.5611 62.2606 46.4044 62.3703 46.2439C62.4748 46.0885 62.5466 45.9162 62.6301 45.7491C62.6549 45.6929 62.6849 45.6381 62.7189 45.5859C62.916 45.3117 63.1093 45.0349 63.3194 44.7699C63.4448 44.6119 63.574 44.4513 63.7281 44.3156C63.7424 44.3051 63.7542 44.2921 63.7659 44.279C63.8926 44.1054 64.0636 43.9735 64.2033 43.8129C64.279 43.7268 64.3678 43.6523 64.4527 43.574C64.5911 43.4487 64.7334 43.3286 64.8665 43.1993C64.9814 43.0883 65.0898 42.9695 65.1903 42.8455C65.3248 42.6784 65.4827 42.5361 65.6316 42.3846C65.7752 42.2397 65.9371 42.1131 66.0611 41.9486C66.2139 41.8259 66.3222 41.6601 66.4711 41.5321C66.5585 41.4564 66.6486 41.3846 66.7439 41.3193C66.8679 41.2344 67.0011 41.1613 67.1251 41.0752C67.2009 41.0216 67.2831 40.9942 67.368 40.9694C67.4568 40.9433 67.5429 40.9485 67.6291 40.9851C67.7048 41.0099 67.7479 41.0621 67.757 41.1418C67.7675 41.2123 67.7649 41.2828 67.7505 41.3533C67.6983 41.6144 67.6304 41.8716 67.5494 42.1248C67.4868 42.3102 67.4293 42.4969 67.3849 42.6875C67.3393 42.886 67.2779 43.0818 67.2218 43.2776C67.2061 43.3286 67.1813 43.3769 67.163 43.4265C67.0455 43.7516 66.9241 44.0766 66.8105 44.403C66.7439 44.5963 66.6799 44.7908 66.629 44.9879C66.5598 45.2556 66.4632 45.5128 66.3575 45.766C66.3131 45.8822 66.2569 45.9932 66.193 46.1003C65.9919 46.4149 65.8366 46.7569 65.6003 47.0494ZM58.6338 45.9501C58.6351 45.9344 58.6338 45.9175 58.6286 45.9018C58.6207 45.8809 58.6038 45.8796 58.592 45.8966C58.5907 45.8992 58.5986 45.9109 58.6051 45.9162C58.6168 45.9279 58.6299 45.9384 58.6429 45.9488C58.6338 45.9854 58.6442 46.0154 58.6743 46.0389C58.6939 46.0546 58.7147 46.0702 58.7369 46.0833C58.7356 46.0989 58.7356 46.1146 58.7369 46.1316C58.7382 46.1394 58.7435 46.1446 58.7513 46.1486C58.7578 46.1525 58.7644 46.1538 58.7722 46.1512C58.7839 46.1446 58.7826 46.1303 58.767 46.1159C58.7552 46.1042 58.7422 46.0963 58.7291 46.0859C58.7396 46.048 58.7226 46.0193 58.6952 45.9971C58.6769 45.9814 58.6547 45.9658 58.6338 45.9501ZM58.5986 45.2686C58.6351 45.2947 58.6638 45.3287 58.6834 45.3691C58.7226 45.4488 58.7657 45.5258 58.8087 45.6028C58.8114 45.6081 58.8231 45.612 58.8309 45.6133C58.8518 45.6185 58.8662 45.6081 58.8636 45.5846C58.8427 45.3887 58.7957 45.2007 58.7226 45.0179C58.6847 44.9292 58.6456 44.8378 58.626 44.7425C58.5999 44.6211 58.5672 44.5023 58.5254 44.3848C58.4745 44.2333 58.4354 44.0779 58.3688 43.9317C58.3113 43.6784 58.1938 43.4474 58.0868 43.2137C57.9092 42.8272 57.7251 42.4434 57.5463 42.0569C57.5215 41.9995 57.4993 41.9421 57.4823 41.882C57.4771 41.865 57.4758 41.8481 57.481 41.8298C57.4862 41.8141 57.4954 41.7998 57.5097 41.7893C57.5267 41.7749 57.545 41.7815 57.5541 41.8024C57.5724 41.8415 57.592 41.882 57.6089 41.9225C57.6938 42.1379 57.7891 42.3481 57.8962 42.5531C57.9105 42.5753 57.9262 42.5961 57.9445 42.6144C57.9484 42.6196 57.9614 42.6183 57.9693 42.6157C57.9771 42.6131 57.981 42.6079 57.9836 42.6001C57.9941 42.5544 57.981 42.5113 57.9641 42.4708C57.9027 42.3128 57.8387 42.1575 57.7747 42.0008C57.7421 41.9199 57.7016 41.8389 57.6742 41.7554C57.6116 41.5608 57.5319 41.3728 57.4366 41.1914C57.3805 41.0804 57.3282 40.9681 57.2747 40.8558C57.1259 40.5334 56.9744 40.2109 56.8452 39.8806C56.7642 39.6743 56.6663 39.4746 56.5867 39.267C56.4966 39.0359 56.4183 38.7996 56.3347 38.5646C56.2486 38.3231 56.1663 38.0789 56.0749 37.8387C56.024 37.7055 55.9731 37.5737 55.93 37.4379C55.8504 37.1924 55.7498 36.9561 55.6271 36.729C55.4626 36.4156 55.2916 36.1036 55.0971 35.8073C55.0931 35.7981 55.0918 35.7903 55.0905 35.7811C55.084 35.7603 55.0905 35.7433 55.1101 35.7381C55.1258 35.7354 55.1493 35.7328 55.1584 35.7407C55.2381 35.8125 55.3164 35.883 55.3673 35.9796C55.4456 36.1297 55.5396 36.2694 55.6323 36.4104C55.6754 36.4783 55.7133 36.5488 55.7446 36.6219C55.7968 36.7355 55.8373 36.853 55.8921 36.964C56.024 37.2368 56.1102 37.5267 56.2107 37.81C56.3399 38.1794 56.4561 38.5528 56.5997 38.9158C56.746 39.2879 56.8726 39.6665 57.0449 40.0281C57.1585 40.2683 57.2525 40.519 57.3805 40.7527C57.4014 40.7919 57.4183 40.8336 57.4366 40.8741C57.4914 40.9955 57.5437 41.1169 57.5998 41.2384C57.6142 41.2606 57.6324 41.2788 57.6533 41.2945C57.6586 41.2997 57.6729 41.2971 57.6794 41.2945C57.6873 41.2919 57.6912 41.2854 57.6925 41.2775C57.6977 41.1692 57.6599 41.0686 57.6259 40.9681C57.5854 40.8506 57.5332 40.737 57.5162 40.613C57.5084 40.5778 57.498 40.5438 57.4823 40.5112C57.4092 40.3206 57.3296 40.1326 57.2382 39.9498C57.182 39.8388 57.1285 39.7278 57.0763 39.6156C57.0711 39.6025 57.0802 39.5816 57.088 39.5673C57.0998 39.5477 57.1416 39.5477 57.1585 39.5646C57.1846 39.5894 57.2055 39.6169 57.2238 39.6469C57.3047 39.814 57.3805 39.985 57.4601 40.1534C57.4692 40.1691 57.4797 40.1822 57.4941 40.1926C57.5006 40.1978 57.5084 40.2004 57.5176 40.2004C57.5358 40.2004 57.5489 40.1887 57.5437 40.1665C57.5058 39.9746 57.4771 39.7801 57.4053 39.5973C57.34 39.4328 57.2695 39.2696 57.1977 39.1077C57.1115 38.9132 57.0201 38.7199 56.9327 38.5254C56.9274 38.5176 56.9261 38.5084 56.9287 38.5006C56.9366 38.4863 56.9457 38.4732 56.9575 38.4628C56.9666 38.4575 56.9744 38.4575 56.9823 38.4628C57.0423 38.4941 57.0619 38.5568 57.088 38.6116C57.1742 38.797 57.2551 38.985 57.34 39.1704C57.3648 39.2278 57.3987 39.2787 57.4301 39.3336C57.4314 39.3362 57.4457 39.3362 57.4523 39.3336C57.4601 39.3296 57.4679 39.3218 57.4692 39.3153C57.4732 39.1638 57.4549 39.015 57.4144 38.8701C57.4118 38.8609 57.4092 38.8531 57.4053 38.844C57.31 38.6429 57.246 38.4301 57.1572 38.2264C57.0724 38.0319 56.9653 37.8478 56.8609 37.6624C56.7708 37.5006 56.6546 37.3517 56.5658 37.1872C56.5345 37.1337 56.4992 37.0828 56.4587 37.0345C56.4117 36.9705 56.3595 36.9091 56.3164 36.8426C56.1559 36.5945 55.947 36.3895 55.7472 36.1741C55.6937 36.1154 55.6376 36.0579 55.5801 36.0031C55.4443 35.8751 55.3046 35.7524 55.1715 35.6219C54.9691 35.4234 54.7772 35.2132 54.5487 35.0435C54.5331 35.0331 54.52 35.0213 54.5082 35.0083C54.3411 34.8242 54.1492 34.6649 53.9939 34.4704C53.9873 34.4638 53.9808 34.4586 53.9717 34.4547C53.9638 34.4521 53.9534 34.4469 53.9469 34.4508C53.9351 34.4586 53.9155 34.4717 53.9168 34.4821C53.9338 34.6675 53.9495 34.8529 53.973 35.0383C53.9926 35.1963 54.0226 35.3542 54.0174 35.5148C54.0174 35.5501 54.0213 35.5853 54.0265 35.6206C54.0722 35.9469 54.1022 36.2746 54.1662 36.5971C54.268 37.1024 54.3216 37.6154 54.4586 38.1142C54.5174 38.4641 54.5918 38.8113 54.6688 39.1586C54.7197 39.3936 54.772 39.6273 54.8425 39.8571C54.9221 40.1195 55.0161 40.3793 55.1075 40.6391C55.1571 40.7814 55.2093 40.9224 55.2681 41.0621C55.3608 41.2828 55.4652 41.4982 55.5449 41.724C55.6023 41.8846 55.6937 42.0269 55.7668 42.1797C55.9065 42.4669 56.0527 42.7515 56.2368 43.0139C56.4052 43.2541 56.5541 43.5061 56.7486 43.7281C56.9692 43.9826 57.1859 44.2411 57.3974 44.5036C57.4327 44.544 57.4692 44.5819 57.5084 44.6171C57.6977 44.8038 57.874 45.0036 58.0346 45.2164C58.1612 45.3874 58.2944 45.5545 58.4262 45.7216C58.4484 45.753 58.4784 45.7686 58.5176 45.7699C58.5294 45.7321 58.5085 45.7008 58.4915 45.6733C58.4145 45.5441 58.3427 45.4096 58.2513 45.2895C58.1181 45.1119 57.9967 44.9266 57.8661 44.7464C57.6951 44.5075 57.5593 44.249 57.4092 43.9983C57.3779 43.9435 57.3504 43.8886 57.3269 43.8299C57.3178 43.8051 57.3113 43.7803 57.3087 43.7542C57.3087 43.745 57.3113 43.7372 57.3165 43.7294C57.3322 43.7307 57.3557 43.7307 57.3622 43.7411C57.4105 43.8247 57.4562 43.9108 57.5032 43.997C57.5659 44.1132 57.6285 44.2307 57.7095 44.3378C57.8753 44.5571 58.0411 44.7764 58.203 44.9984C58.3074 45.142 58.4184 45.2817 58.4993 45.4409C58.5398 45.5206 58.5842 45.5976 58.6338 45.672C58.6521 45.6994 58.686 45.7164 58.7147 45.7373C58.7226 45.7412 58.7317 45.7412 58.7396 45.7373C58.7461 45.7308 58.7487 45.7229 58.7474 45.7138C58.7291 45.5976 58.6691 45.4984 58.6207 45.3939C58.6025 45.3535 58.5868 45.3117 58.6064 45.266L58.5986 45.2686ZM61.0543 49.7193C61.036 49.748 61.0164 49.7754 60.9995 49.8041C60.9942 49.8106 60.9969 49.8211 60.9956 49.8289C61.0099 49.8237 61.0269 49.8211 61.036 49.8106C61.0595 49.7845 61.07 49.7532 61.0465 49.7206C61.0843 49.6605 61.1339 49.607 61.1601 49.5404C61.2044 49.432 61.271 49.3393 61.3298 49.2401C61.3924 49.1318 61.4447 49.0195 61.5126 48.915C61.6379 48.7205 61.7697 48.5312 61.9016 48.3419C61.929 48.3066 61.9578 48.274 61.9891 48.244C61.9943 48.2388 62.0061 48.2401 62.0152 48.2374C62.0165 48.2466 62.023 48.257 62.0204 48.2636C61.9617 48.3824 61.8977 48.4986 61.8259 48.6095C61.6784 48.8406 61.5126 49.0613 61.3951 49.3119C61.2488 49.5273 61.1601 49.7689 61.07 50.0104C61.0412 50.0861 61.023 50.1631 60.9877 50.2349C60.882 50.4517 60.8115 50.6801 60.7318 50.906C60.7227 50.9295 60.7318 50.9399 60.7606 50.9347C60.882 50.7963 61.0243 50.6632 61.1418 50.5065C61.2371 50.3786 61.3337 50.2506 61.4303 50.124C61.4734 50.0665 61.5126 50.0052 61.5635 49.9569C61.6692 49.8603 61.7489 49.7428 61.8363 49.6305C61.9173 49.5247 61.9917 49.4111 62.0857 49.3184C62.1941 49.2127 62.2868 49.0952 62.3847 48.979C62.4238 48.932 62.4695 48.8889 62.5113 48.8432C62.5492 48.8054 62.5844 48.7662 62.6184 48.7244C62.7659 48.5247 62.9239 48.3328 63.0936 48.15C63.245 47.9881 63.3599 47.7962 63.5192 47.6395C63.8652 47.1773 64.2098 46.7139 64.5323 46.2347C64.5545 46.2073 64.5741 46.1773 64.5884 46.1446C64.6328 46.0258 64.7099 45.9279 64.7778 45.8248C64.8731 45.6838 64.971 45.548 65.0363 45.39C65.0402 45.3822 65.0454 45.3757 65.0532 45.3718C65.0702 45.3587 65.0885 45.3574 65.1002 45.3731C65.1211 45.4018 65.1185 45.3574 65.1146 45.3926C65.1028 45.4919 65.0597 45.578 65.0088 45.6629C64.9684 45.7308 64.9174 45.7948 64.8874 45.8679C64.8469 45.9566 64.7973 46.0415 64.7399 46.1198C64.5989 46.3261 64.4566 46.5298 64.3169 46.7361C64.2725 46.8013 64.2386 46.8758 64.1916 46.9397C64.1459 47.0037 64.0884 47.0598 64.0375 47.1212C64.0192 47.1408 64.0062 47.1643 63.9905 47.1852C63.8103 47.428 63.6302 47.6708 63.45 47.9124C63.4017 47.9763 63.356 48.0442 63.2986 48.0991C63.1954 48.197 63.1119 48.3132 63.0205 48.4202C62.9735 48.4738 62.933 48.5338 62.8821 48.5821C62.8129 48.6513 62.7502 48.7257 62.6928 48.8054C62.6223 48.8968 62.5531 48.9908 62.4695 49.0704C62.386 49.15 62.3103 49.2362 62.2411 49.3289C62.2045 49.3798 62.1653 49.4281 62.1236 49.4738C61.9564 49.6357 61.8272 49.8276 61.6862 50.0091C61.6105 50.1083 61.5426 50.2128 61.4734 50.3159C61.4669 50.3276 61.4721 50.3459 61.4721 50.3616C61.4812 50.359 61.493 50.3603 61.4982 50.3551C61.523 50.3303 61.5452 50.3028 61.57 50.2767C61.6536 50.1853 61.7463 50.1044 61.8494 50.0339C61.8768 50.0182 61.9003 50.0234 61.9199 50.0496C61.9277 50.0626 61.9369 50.0874 61.9316 50.0966C61.9121 50.137 61.8859 50.1723 61.8559 50.2036C61.8024 50.2506 61.7397 50.2859 61.6875 50.3329C61.5622 50.4451 61.4264 50.547 61.3376 50.6958C61.3337 50.7023 61.335 50.7128 61.3324 50.7206C61.3285 50.7363 61.3337 50.7389 61.3481 50.7298C61.4186 50.6919 61.4825 50.6475 61.5413 50.594C61.6457 50.4974 61.7528 50.4047 61.8585 50.3094C62.1236 50.0731 62.3886 49.8381 62.6536 49.6018C62.7594 49.5078 62.8651 49.4124 62.9787 49.3276C63.1197 49.2192 63.2672 49.12 63.4187 49.0286C63.6263 48.9072 63.8208 48.7688 64.0009 48.6108C64.1811 48.4542 64.3756 48.3106 64.5192 48.116C64.5375 48.0964 64.5571 48.0782 64.578 48.0612C64.6942 47.9398 64.8143 47.821 64.9253 47.6943C65.0075 47.6016 65.0767 47.4972 65.1564 47.4019C65.2412 47.3001 65.3352 47.2061 65.4188 47.1029C65.5376 46.958 65.6433 46.8053 65.7373 46.6434C65.8457 46.4501 65.9514 46.2543 66.0585 46.0611C66.1982 45.8117 66.3118 45.5519 66.3979 45.2804C66.441 45.1446 66.4763 45.0062 66.5285 44.8743C66.5677 44.7751 66.5964 44.6733 66.6251 44.5714C66.6721 44.4096 66.7204 44.2503 66.7831 44.091C66.8928 43.8116 67.0076 43.5309 67.0781 43.2372C67.0886 43.1941 67.1082 43.1536 67.1212 43.1118C67.1473 43.0361 67.18 42.9617 67.1943 42.8834C67.257 42.5518 67.368 42.2319 67.4724 41.912C67.5299 41.7253 67.5716 41.5347 67.5977 41.3402C67.6017 41.2971 67.6004 41.2527 67.5951 41.2083C67.5912 41.1639 67.5494 41.13 67.5051 41.1235C67.4045 41.1052 67.3105 41.1261 67.2257 41.1822C67.1212 41.2501 67.0207 41.3219 66.9163 41.3898C66.6382 41.57 66.4019 41.7984 66.1825 42.0426C66.0572 42.181 65.9253 42.3141 65.7909 42.4395C65.5768 42.6431 65.3757 42.8559 65.1786 43.0714C64.9618 43.3077 64.7386 43.5322 64.4997 43.7463C64.3352 43.8939 64.1798 44.0531 64.0218 44.2072C63.9265 44.3495 63.7986 44.4618 63.6811 44.5806C63.5375 44.7255 63.4069 44.8822 63.2907 45.0506C63.2542 45.1015 63.215 45.1498 63.1784 45.1994C63.0649 45.3587 62.9513 45.5167 62.8377 45.6759C62.7972 45.7347 62.7633 45.7974 62.7346 45.8613C62.6667 46.0167 62.5896 46.1668 62.5048 46.3118C62.3834 46.5089 62.2541 46.7008 62.1405 46.9019C61.9995 47.1499 61.8729 47.4019 61.775 47.6695C61.694 47.8941 61.6196 48.1226 61.5387 48.3484C61.446 48.6069 61.3598 48.8693 61.2488 49.1213C61.1718 49.3002 61.1144 49.4869 61.0452 49.6683C61.0399 49.6814 61.0504 49.701 61.0543 49.7179V49.7193ZM59.4093 46.5115C59.4406 46.535 59.4524 46.5676 59.4446 46.6055C59.4132 46.8105 59.4315 47.0128 59.4681 47.2152C59.5007 47.3901 59.5281 47.5651 59.5607 47.74C59.5634 47.7531 59.579 47.7635 59.5895 47.7753C59.6012 47.7635 59.6221 47.7518 59.6221 47.74C59.6391 47.5181 59.6561 47.2974 59.6652 47.0755C59.6717 46.9071 59.6691 46.7374 59.6665 46.5689C59.6639 46.2935 59.6652 46.018 59.6273 45.7451C59.613 45.6394 59.6025 45.5336 59.5921 45.4279C59.5686 45.2059 59.5555 44.9853 59.5542 44.7621C59.5516 44.7098 59.5451 44.6563 59.5359 44.6041C59.5007 44.3221 59.4485 44.0427 59.4341 43.7581C59.4302 43.668 59.4145 43.5818 59.3871 43.4957C59.3297 43.3259 59.3049 43.1497 59.2774 42.9748C59.2148 42.5713 59.1521 42.1679 59.0542 41.771C59.0385 41.7097 59.0281 41.6483 59.0163 41.5883C58.9184 41.0543 58.8218 40.5216 58.72 39.9889C58.6155 39.4484 58.5411 38.9027 58.4941 38.3544C58.4941 38.327 58.4993 38.3022 58.5098 38.2787C58.5163 38.2656 58.5385 38.2591 58.5542 38.2539C58.5581 38.2526 58.5698 38.263 58.5724 38.2695C58.6116 38.3792 58.6221 38.4941 58.6364 38.6077C58.6717 38.8714 58.6978 39.1364 58.7526 39.3975C58.797 39.6064 58.8283 39.8179 58.8649 40.0268C58.9171 40.3258 58.9667 40.6234 59.0202 40.9198C59.0437 41.0608 59.0712 41.2005 59.0999 41.3389C59.1103 41.3911 59.1312 41.4407 59.1404 41.4929C59.2174 41.9303 59.2918 42.3677 59.3675 42.8063C59.3923 42.946 59.4054 43.0896 59.4472 43.2241C59.5281 43.4813 59.5555 43.7463 59.5829 44.0114C59.5986 44.1615 59.6117 44.3116 59.6352 44.4605C59.6547 44.5832 59.6613 44.7072 59.6691 44.8313C59.6861 45.1054 59.6965 45.3809 59.7409 45.6524C59.7657 45.8013 59.7788 45.9514 59.7788 46.1029C59.7749 46.3157 59.7762 46.5285 59.7879 46.7413C59.8023 47.0259 59.7801 47.3092 59.7553 47.5925C59.737 47.8144 59.7409 48.0364 59.7435 48.2583C59.7448 48.2662 59.7487 48.274 59.7566 48.2792C59.7709 48.274 59.7918 48.2701 59.7984 48.2596C59.8206 48.2205 59.8388 48.1813 59.8532 48.1395C59.9002 48.0051 59.9433 47.8693 59.989 47.7348C60.0307 47.6095 60.0791 47.4854 60.1169 47.3562C60.1678 47.1865 60.2135 47.0154 60.2566 46.8418C60.3284 46.5494 60.4146 46.2595 60.425 45.9553C60.425 45.9371 60.4316 45.9201 60.4329 45.9018C60.4564 45.6289 60.5112 45.3574 60.4929 45.0793C60.4929 45.0715 60.4955 45.0623 60.4981 45.0545C60.5007 45.0284 60.5138 45.0206 60.5373 45.031C60.5464 45.0336 60.553 45.0388 60.5582 45.0467C60.5961 45.1302 60.5974 45.219 60.5908 45.3078C60.5778 45.5193 60.5621 45.7321 60.5399 45.9449C60.4981 46.3065 60.4329 46.6643 60.3402 47.0168C60.2853 47.2322 60.2331 47.4489 60.1522 47.6565C60.0621 47.8876 59.9955 48.1278 59.925 48.3654C59.9106 48.415 59.8989 48.4633 59.9119 48.5155C59.9198 48.5116 59.9315 48.509 59.9341 48.5025C60.0216 48.3184 60.1078 48.133 60.1926 47.9489C60.2971 47.7231 60.4002 47.4985 60.5034 47.2726C60.6182 47.022 60.7331 46.7726 60.8454 46.5219C60.8885 46.424 60.9264 46.3248 60.959 46.223C61.0204 46.0284 61.0739 45.8313 61.1339 45.6368C61.1914 45.4579 61.2358 45.2778 61.2684 45.0937C61.2841 44.9971 61.2997 44.9004 61.3193 44.8051C61.3624 44.6041 61.3768 44.4004 61.3951 44.1981C61.4055 44.0727 61.4003 43.9487 61.3794 43.826C61.3663 43.7385 61.3533 43.6497 61.3467 43.5609C61.335 43.4004 61.3089 43.2437 61.2658 43.0896C61.2018 42.8586 61.1431 42.6249 61.0804 42.3938C61.0399 42.2489 60.9916 42.1066 60.9368 41.9656C60.8911 41.8507 60.8493 41.7332 60.8102 41.6144C60.7475 41.4211 60.6835 41.2266 60.6261 41.0308C60.5308 40.707 60.4211 40.3884 60.318 40.0673C60.2879 39.9746 60.2605 39.8793 60.2279 39.7879C60.1052 39.4458 59.9955 39.0986 59.8897 38.75C59.8636 38.6651 59.831 38.5829 59.8101 38.4967C59.7448 38.2382 59.673 37.9823 59.5725 37.7356C59.5451 37.6703 59.5242 37.6011 59.5033 37.5345C59.4654 37.4157 59.4315 37.2956 59.391 37.1781C59.3349 37.0097 59.2709 36.8439 59.2161 36.6754C59.126 36.3961 59.0477 36.1141 58.9602 35.8347C58.8636 35.5305 58.7852 35.2198 58.6299 34.9378C58.6221 34.9221 58.6168 34.9038 58.6103 34.8881C58.4549 34.5383 58.2565 34.2106 58.0411 33.8959C58.0111 33.8515 57.9771 33.8098 57.9419 33.7706C57.7747 33.5852 57.6089 33.4011 57.4392 33.2196C57.3361 33.1061 57.216 33.0186 57.0763 32.9559C57.0476 32.9442 56.9979 32.9794 57.0019 33.0108C57.0045 33.0551 57.011 33.0995 57.0201 33.1426C57.0449 33.2275 57.0776 33.311 57.105 33.3946C57.1664 33.58 57.2277 33.7667 57.2865 33.9521C57.3047 34.003 57.3152 34.0539 57.3191 34.1074C57.3191 34.1975 57.3413 34.2824 57.357 34.3698C57.3909 34.5631 57.4209 34.755 57.4653 34.9456C57.4745 34.9978 57.481 35.0513 57.4823 35.1049C57.5019 35.3346 57.5136 35.5644 57.5397 35.7942C57.5593 35.9979 57.5685 36.2015 57.5659 36.4052C57.5685 37.0097 57.5319 37.6128 57.5437 38.2173C57.5489 38.4471 57.5554 38.6782 57.5763 38.9079C57.6011 39.156 57.6246 39.4028 57.6651 39.6482C57.7199 39.9811 57.7695 40.3153 57.8191 40.6496C57.8387 40.7801 57.857 40.912 57.874 41.0451C57.887 41.1418 57.887 41.2397 57.9053 41.3363C57.9575 41.6157 58.0163 41.8938 58.0737 42.1718C58.0829 42.2149 58.1011 42.2554 58.1129 42.2985C58.1938 42.5805 58.2787 42.8612 58.3544 43.1432C58.4523 43.5035 58.5333 43.8678 58.6638 44.2176C58.673 44.2424 58.6782 44.2686 58.6847 44.2947C58.733 44.4748 58.7735 44.6576 58.8296 44.8352C58.8975 45.0467 58.9641 45.2569 59.0124 45.4749C59.096 45.8378 59.2056 46.1943 59.2931 46.5572C59.2957 46.565 59.2996 46.5729 59.3049 46.5807C59.314 46.599 59.3323 46.6055 59.3479 46.5898C59.3741 46.565 59.3949 46.5363 59.4171 46.5102L59.4093 46.5115ZM51.982 32.7444C51.999 32.7366 52.0133 32.7274 52.0277 32.7157C52.0695 32.6674 52.1204 32.6661 52.17 32.6974C52.2301 32.734 52.2888 32.7744 52.3462 32.8175C52.4912 32.9324 52.6322 33.0525 52.7692 33.1779C52.9207 33.3176 53.0526 33.4703 53.1831 33.6257C53.2092 33.6505 53.2288 33.6792 53.2432 33.7118C53.281 33.8163 53.3672 33.8842 53.4272 33.9703C53.4338 33.9821 53.4573 33.9821 53.4729 33.9873C53.4756 33.9782 53.4782 33.969 53.4782 33.9599C53.4586 33.8633 53.4312 33.768 53.3659 33.6949C53.2484 33.5617 53.1609 33.4037 53.0225 33.2888C53.0095 33.2771 53.0029 33.2614 53.0003 33.2431C53.0003 33.2275 53.0042 33.2118 53.0121 33.1974C53.0134 33.1935 53.0291 33.1948 53.0369 33.1974C53.0982 33.2196 53.14 33.2666 53.1779 33.3149C53.2236 33.3698 53.2667 33.4259 53.3293 33.4612C53.345 33.4651 53.3594 33.4651 53.3737 33.4599C53.3776 33.452 53.3789 33.4442 53.3763 33.4351C53.3032 33.2941 53.2353 33.1478 53.1531 33.0121C53.0774 32.8919 52.9938 32.7771 52.9037 32.6687C52.7588 32.4924 52.5852 32.3658 52.3449 32.3462C52.1935 32.3345 52.046 32.3084 51.8997 32.2692C51.7183 32.2196 51.5342 32.2013 51.3514 32.1661C51.2992 32.1569 51.247 32.1543 51.1934 32.1556C51.1804 32.1556 51.1647 32.1726 51.153 32.1843C51.1491 32.1922 51.1491 32.2 51.153 32.2078C51.2248 32.3345 51.3188 32.435 51.465 32.4781C51.5068 32.4898 51.5446 32.5159 51.5851 32.5368C51.6478 32.5695 51.7104 32.6021 51.7744 32.6334C51.8462 32.6674 51.9063 32.7222 51.982 32.7444ZM59.8362 48.727C59.848 48.7101 59.8454 48.7009 59.8297 48.7061C59.8258 48.7074 59.8245 48.7179 59.8219 48.7231L59.8362 48.727Z" fill="#D6A553"/>
</g>
<path d="M59.7695 40.7607C59.7865 40.7803 59.8009 40.8012 59.8126 40.8247C59.9158 41.0689 60.0228 41.3117 60.1025 41.5663C60.1051 41.5741 60.1077 41.5832 60.1103 41.5911C60.1416 41.7856 60.2082 41.9684 60.2722 42.1525C60.28 42.1773 60.2865 42.2034 60.2918 42.2295C60.3988 42.7961 60.498 43.3627 60.5698 43.9345C60.5751 43.9868 60.5777 44.0403 60.579 44.0938C60.5816 44.2087 60.5816 44.3236 60.6025 44.4372C60.6064 44.4724 60.6064 44.5077 60.6012 44.5429C60.5999 44.573 60.5842 44.5925 60.5555 44.6004C60.5241 44.6069 60.5033 44.5939 60.4941 44.5625C60.4863 44.5377 60.4798 44.5129 60.4745 44.4868C60.4615 44.3993 60.4523 44.3105 60.4484 44.2218C60.4471 44.0886 60.4354 43.9567 60.4132 43.8262C60.4066 43.8001 60.4027 43.774 60.4027 43.7465C60.4093 43.5677 60.3596 43.3967 60.344 43.2204C60.3427 43.2021 60.3414 43.1852 60.3375 43.1669C60.3035 43.0024 60.2513 42.8418 60.2356 42.6734C60.2186 42.505 60.1664 42.3444 60.1351 42.1799C60.1194 42.0924 60.0855 42.0089 60.0607 41.924C59.9823 41.6524 59.9118 41.3783 59.8178 41.1106C59.78 41.001 59.7434 40.8926 59.7056 40.7842C59.7056 40.7751 59.7095 40.7686 59.7173 40.7634C59.7343 40.762 59.7526 40.7607 59.7695 40.7607Z" fill="#D6A553"/>
<path d="M57.7672 34.1743C57.7751 34.1795 57.7855 34.1835 57.7881 34.19C57.7999 34.2135 57.809 34.2383 57.8168 34.2631C57.8821 34.4668 57.9474 34.6691 58.0101 34.8715C58.031 34.9394 58.0466 35.0086 58.061 35.0791C58.0871 35.2096 58.1184 35.3376 58.1563 35.4655C58.2072 35.6352 58.2425 35.8076 58.2633 35.9838C58.2895 36.1862 58.3182 36.3872 58.3352 36.5909C58.3352 36.617 58.3299 36.6418 58.3208 36.6666C58.3195 36.6718 58.3077 36.6758 58.2999 36.6771C58.2921 36.6771 58.2842 36.6745 58.2777 36.6692C58.2699 36.664 58.2647 36.6575 58.2607 36.6496C58.2464 36.617 58.2372 36.5831 58.2307 36.5478C58.215 36.2906 58.1445 36.0413 58.1093 35.788C58.1028 35.7436 58.0949 35.7005 58.0832 35.6574C57.967 35.2031 57.8847 34.7383 57.7242 34.2957C57.7124 34.2618 57.7033 34.2252 57.7255 34.1939C57.7333 34.1835 57.7529 34.1808 57.7672 34.1743Z" fill="#D6A553"/>
<path d="M58.4862 37.8234C58.4797 37.8286 58.4719 37.8325 58.4641 37.8338C58.4562 37.8338 58.4484 37.8312 58.4432 37.8273C58.4353 37.8221 58.4301 37.8156 58.4262 37.8064C58.3687 37.6393 58.3374 37.467 58.3335 37.2894C58.3335 37.2764 58.3505 37.2607 58.3622 37.2502C58.3792 37.2372 58.4184 37.2568 58.4236 37.2829C58.4497 37.4474 58.5084 37.6067 58.5045 37.7751C58.5019 37.7921 58.4954 37.809 58.4862 37.8234Z" fill="#D6A553"/>
<path d="M59.4171 46.5106C59.4119 46.495 59.4002 46.4793 59.4015 46.4649C59.4041 46.4506 59.4211 46.444 59.4315 46.4336C59.4354 46.4375 59.4432 46.4414 59.4432 46.4453C59.4446 46.4545 59.4446 46.4623 59.4406 46.4701C59.4302 46.4845 59.4211 46.4989 59.4093 46.5119L59.4171 46.5106Z" fill="#D6A553"/>
<path d="M66.7791 42.2463C66.8117 42.1745 66.8417 42.1013 66.8757 42.0308C66.8822 42.0191 66.9057 42.0139 66.9214 42.0113C66.9423 42.01 66.9736 42.0491 66.9684 42.0661C66.9658 42.0831 66.9618 42.1 66.954 42.1157C66.8339 42.3207 66.7386 42.5413 66.5924 42.7319C66.5806 42.745 66.5715 42.7607 66.565 42.7763C66.4984 42.9526 66.3887 43.1027 66.2908 43.2594C66.266 43.2959 66.2464 43.3351 66.2281 43.3756C66.1798 43.4905 66.1054 43.5897 66.031 43.6889C66.0179 43.7072 65.9983 43.7072 65.9905 43.6928C65.9814 43.6785 65.9775 43.6615 65.9788 43.6445C65.9801 43.6275 65.9866 43.6106 65.9957 43.5962C66.1054 43.4043 66.2164 43.2137 66.326 43.0231C66.3417 43.0009 66.3535 42.9774 66.3626 42.9526C66.3965 42.839 66.4683 42.7489 66.531 42.6536C66.6185 42.5217 66.7099 42.3912 66.7791 42.2463Z" fill="#D6A553"/>
<path d="M65.5207 44.4256C65.5455 44.4021 65.5638 44.3825 65.5834 44.3656C65.5899 44.3603 65.5964 44.359 65.6055 44.3603C65.6251 44.3682 65.6356 44.3838 65.6277 44.4008C65.5285 44.6058 65.4293 44.8094 65.3288 45.0144C65.3249 45.0236 65.3183 45.0301 65.3092 45.0327C65.2935 45.0392 65.2779 45.0405 65.2609 45.0379C65.2465 45.0301 65.2361 45.0183 65.2309 45.0014C65.2243 44.9844 65.2256 44.9674 65.2322 44.9504C65.3288 44.7716 65.4267 44.5966 65.5207 44.4256Z" fill="#D6A553"/>
<path d="M58.4784 44.9804C58.4013 44.9008 58.3465 44.8133 58.3635 44.6958L58.353 44.6984C58.4092 44.7506 58.4392 44.8185 58.4692 44.8877C58.4849 44.9191 58.4849 44.9504 58.4692 44.9817L58.4784 44.9804Z" fill="#D6A553"/>
<path d="M58.608 45.2661C58.5453 45.2217 58.5101 45.1656 58.5414 45.0859L58.5323 45.0885C58.5858 45.1369 58.6171 45.193 58.5989 45.2687L58.608 45.2661Z" fill="#D6A553"/>
<path d="M58.2996 44.5885C58.267 44.5597 58.2461 44.5258 58.2369 44.484C58.2356 44.4749 58.233 44.4618 58.2369 44.4592C58.2565 44.4461 58.2709 44.4514 58.2787 44.4736C58.297 44.5114 58.3127 44.5493 58.2918 44.5911L58.2996 44.5885Z" fill="#D6A553"/>
<path d="M58.2905 44.5915C58.3297 44.6163 58.3571 44.6476 58.3532 44.6985L58.3636 44.6959C58.3258 44.6698 58.2957 44.6385 58.2997 44.5889L58.2905 44.5915Z" fill="#D6A553"/>
<path d="M58.4707 44.9818C58.5086 45.0079 58.5425 45.0353 58.5321 45.0888L58.5412 45.0862C58.4994 45.0627 58.4694 45.0327 58.4785 44.9805L58.4707 44.9818Z" fill="#D6A553"/>
<path d="M11.2477 52.9133H10.454L10.2137 53.6235H9.7124L10.5636 51.2578H11.159L11.9945 53.6235H11.4775L11.2477 52.9133ZM10.8508 51.6651L10.5688 52.5373H11.1276L10.8508 51.6651Z" fill="#D6A553"/>
<path d="M16.2882 53.2475V53.6235H14.5806V51.2578H16.2569V51.6286H15.0558V52.2553H16.1681V52.626H15.0558V53.2475H16.2882Z" fill="#D6A553"/>
<path d="M19.7812 51.2109C20.0488 51.2109 20.2538 51.2788 20.3974 51.4146C20.5397 51.5504 20.6245 51.7319 20.6533 51.9577H20.1676C20.1532 51.8324 20.1115 51.7371 20.0423 51.6705C19.9757 51.6013 19.8817 51.566 19.7603 51.566C19.6624 51.566 19.5827 51.5909 19.52 51.6392C19.46 51.6849 19.4313 51.754 19.4313 51.848C19.4313 51.946 19.4678 52.0243 19.5409 52.083C19.614 52.1392 19.7446 52.1901 19.9326 52.2345C20.1898 52.2945 20.3791 52.3846 20.5018 52.506C20.6232 52.6249 20.6846 52.7802 20.6846 52.9708C20.6846 53.1875 20.5984 53.3573 20.4287 53.4826C20.2616 53.6079 20.0553 53.6706 19.8125 53.6706C19.5266 53.6706 19.2968 53.6079 19.1232 53.4826C18.9521 53.3547 18.8568 53.168 18.8359 52.9238H19.3164C19.3399 53.0492 19.396 53.1471 19.4835 53.2163C19.5736 53.2868 19.6819 53.3207 19.8073 53.3207C19.9143 53.3207 20.0057 53.2933 20.0788 53.2372C20.1545 53.1823 20.1937 53.1105 20.1937 53.023C20.1937 52.9225 20.1572 52.8403 20.084 52.7776C20.0135 52.7149 19.8921 52.6627 19.7185 52.6209C19.4535 52.5583 19.2563 52.4747 19.1284 52.3703C18.9991 52.2632 18.9352 52.1079 18.9352 51.9055C18.9352 51.694 19.0161 51.5243 19.1806 51.3989C19.3438 51.2736 19.5435 51.2109 19.7812 51.2109Z" fill="#D6A553"/>
<path d="M25.2308 51.6286H24.4266V53.6235H23.9566V51.6286H23.1523V51.2578H25.2308V51.6286Z" fill="#D6A553"/>
<path d="M29.8653 51.2578V53.6235H29.3953V52.6521H28.2882V53.6235H27.813V51.2578H28.2882V52.2761H29.3953V51.2578H29.8653Z" fill="#D6A553"/>
<path d="M34.3986 53.2475V53.6235H32.6909V51.2578H34.3673V51.6286H33.1661V52.2553H34.2785V52.626H33.1661V53.2475H34.3986Z" fill="#D6A553"/>
<path d="M38.9569 51.6286H38.1526V53.6235H37.6826V51.6286H36.8784V51.2578H38.9569V51.6286Z" fill="#D6A553"/>
<path d="M42.0138 53.6235H41.5386V51.2578H42.0138V53.6235Z" fill="#D6A553"/>
<path d="M45.8593 51.2109C46.1648 51.2109 46.4051 51.2867 46.58 51.4355C46.7536 51.5856 46.8529 51.7828 46.8777 52.0256L46.8829 52.0622H46.4077L46.4024 52.0256C46.3398 51.7201 46.1544 51.566 45.8489 51.566C45.657 51.566 45.5016 51.6431 45.3841 51.7958C45.2692 51.9499 45.2118 52.1601 45.2118 52.4277C45.2118 52.7136 45.2692 52.9343 45.3841 53.0909C45.5016 53.245 45.6557 53.3207 45.8437 53.3207C45.9925 53.3207 46.1126 53.2789 46.204 53.1954C46.298 53.1092 46.3607 52.9904 46.392 52.8403L46.3972 52.8037H46.8672L46.862 52.8403C46.8372 53.0949 46.7328 53.2972 46.5487 53.446C46.3633 53.5962 46.1218 53.6706 45.8228 53.6706C45.4886 53.6706 45.2183 53.5609 45.0133 53.3416C44.811 53.1223 44.7104 52.8272 44.7104 52.4538C44.7104 52.0752 44.8175 51.7736 45.0342 51.5504C45.2496 51.3245 45.5251 51.2109 45.8593 51.2109Z" fill="#D6A553"/>
<path d="M55.5307 27.2021V29.5678H54.9928V28.6174H53.9588V29.5678H53.4209V27.2021H53.9588V28.1944H54.9928V27.2021H55.5307Z" fill="#D6A553"/>
<path d="M59.4599 28.6539V29.5678H58.922V28.6644L58.0864 27.2021H58.6922L59.2092 28.1891L59.7001 27.2021H60.2902L59.4599 28.6539Z" fill="#D6A553"/>
<path d="M63.9857 27.2126C64.1658 27.2335 64.3316 27.2883 64.4818 27.3745C64.6306 27.462 64.7494 27.586 64.8369 27.7453C64.927 27.9058 64.9727 28.1082 64.9727 28.351C64.9727 28.5952 64.927 28.8041 64.8369 28.9777C64.7494 29.1487 64.6293 29.2832 64.4765 29.3798C64.3264 29.4738 64.1606 29.5313 63.9804 29.5521C63.9204 29.56 63.8721 29.5652 63.8342 29.5678C63.795 29.5678 63.7428 29.5678 63.6775 29.5678H62.8315V27.2021H63.6828C63.7454 27.2021 63.795 27.2021 63.8342 27.2021C63.876 27.2021 63.9256 27.2061 63.9857 27.2126ZM63.8499 29.1396C64.017 29.1226 64.1502 29.0456 64.252 28.9098C64.3525 28.7714 64.4034 28.5886 64.4034 28.3615C64.4034 28.1356 64.3525 27.962 64.252 27.8393C64.1541 27.7178 64.0222 27.6486 63.8551 27.6304C63.8133 27.6238 63.7742 27.6199 63.7402 27.6199C63.705 27.6199 63.6632 27.6199 63.6149 27.6199H63.3694V29.1448H63.6097C63.658 29.1448 63.6997 29.1448 63.735 29.1448C63.7728 29.1448 63.8107 29.1435 63.8499 29.1396Z" fill="#D6A553"/>
<path d="M69.4406 28.9829C69.4536 29.1226 69.4732 29.2375 69.498 29.3276C69.5255 29.419 69.5633 29.4986 69.6129 29.5678H69.028C68.9967 29.4843 68.9719 29.4046 68.9549 29.3276C68.9367 29.2519 68.9236 29.1631 68.9132 29.0613C68.8949 28.9359 68.8609 28.8367 68.8087 28.7636C68.7591 28.6905 68.6912 28.6513 68.605 28.6435C68.5737 28.6409 68.5424 28.6383 68.511 28.6383C68.4797 28.6383 68.4484 28.6383 68.417 28.6383H68.2029V29.5678H67.665V27.2021H68.5633C68.6325 27.2021 68.6938 27.2048 68.746 27.2074C68.8009 27.2074 68.8583 27.2113 68.9184 27.2178C69.0333 27.2322 69.1377 27.2622 69.2317 27.3066C69.3283 27.3523 69.4053 27.4189 69.4615 27.505C69.5202 27.5925 69.5503 27.7061 69.5503 27.8445C69.5503 27.9985 69.5085 28.1239 69.4249 28.2205C69.3414 28.3145 69.2265 28.385 69.0803 28.4294C69.1978 28.4711 69.2839 28.539 69.3362 28.633C69.391 28.727 69.4262 28.8445 69.4406 28.9829ZM68.2029 28.2414H68.4797C68.5176 28.2414 68.5502 28.2414 68.5789 28.2414C68.6103 28.2414 68.6377 28.2414 68.6625 28.2414C68.7487 28.2309 68.8244 28.2035 68.887 28.1578C68.9523 28.1134 68.9863 28.0377 68.9863 27.9333C68.9863 27.8262 68.9562 27.7505 68.8975 27.7087C68.8413 27.6643 68.7695 27.6356 68.6834 27.6251C68.6586 27.6225 68.6312 27.6199 68.5998 27.6199C68.5711 27.6199 68.5385 27.6199 68.5006 27.6199H68.2029V28.2414Z" fill="#D6A553"/>
<path d="M73.5541 28.8994H72.7812L72.5619 29.5678H71.9927L72.8439 27.2021H73.5123L74.3531 29.5678H73.7735L73.5541 28.8994ZM73.1729 27.6669L72.917 28.4764H73.4236L73.1729 27.6669Z" fill="#D6A553"/>
<mask id="mask2_208_530" style="mask-type:luminance" maskUnits="userSpaceOnUse" x="24" y="22" width="15" height="22">
<path d="M24.3433 22.2441H38.2905V43.0495H24.3433V22.2441Z" fill="white"/>
</mask>
<g mask="url(#mask2_208_530)">
<path d="M26.1975 34.6454C26.3216 34.806 26.4365 34.9783 26.5853 35.1193C26.6153 35.1507 26.644 35.1846 26.6715 35.2186C26.7367 35.2969 26.7955 35.3805 26.8764 35.4457C26.9039 35.4705 26.9274 35.498 26.9482 35.528C27.0592 35.6651 27.1819 35.7891 27.3177 35.9001C27.3895 35.9614 27.4613 36.0241 27.5331 36.0855C27.678 36.2095 27.8425 36.3035 27.9966 36.4132C28.1167 36.4967 28.2381 36.5777 28.3582 36.6612C28.3883 36.6795 28.4183 36.7017 28.4444 36.7265C28.5632 36.8466 28.699 36.9471 28.8243 37.0568C28.9131 37.1325 28.994 37.2174 29.0789 37.297C29.122 37.3362 29.1664 37.374 29.2095 37.4132C29.2826 37.4837 29.3648 37.5451 29.4366 37.6195C29.5019 37.6861 29.5789 37.7435 29.652 37.8049C29.763 37.8989 29.8779 37.989 29.9797 38.0934C30.0163 38.1287 30.0555 38.1626 30.0959 38.1939C30.3714 38.4237 30.6221 38.677 30.8218 38.9773C30.8623 39.0386 30.908 39.0961 30.9537 39.1522C31.0869 39.3206 31.1848 39.506 31.2474 39.711C31.2631 39.7606 31.2801 39.8076 31.2957 39.8559C31.3219 39.9329 31.3388 40.0113 31.3467 40.0909C31.3623 40.2515 31.3832 40.4108 31.4028 40.5687C31.4276 40.758 31.4642 40.9434 31.5151 41.1262C31.532 41.1902 31.5451 41.2542 31.5555 41.3194C31.5738 41.4422 31.5999 41.5636 31.6365 41.6824C31.724 41.9761 31.8114 42.2699 31.9054 42.561C31.9433 42.672 31.9864 42.7803 32.036 42.8861C32.0556 42.9253 32.0791 42.9618 32.1078 42.9958C32.1235 43.0101 32.1417 43.0219 32.1626 43.0297C32.194 43.0441 32.241 43.018 32.2501 42.9866C32.2645 42.9422 32.2619 42.8992 32.2449 42.8574C32.1248 42.6054 32.0543 42.3378 31.9759 42.0714C31.9172 41.8691 31.8519 41.6667 31.8036 41.4604C31.7657 41.3051 31.7214 41.1497 31.7005 40.9904C31.6926 40.933 31.6744 40.8768 31.6639 40.8194C31.6456 40.7254 31.6274 40.6327 31.613 40.5387C31.5817 40.3442 31.5542 40.1497 31.5216 39.9564C31.4785 39.6966 31.4224 39.4394 31.391 39.1796C31.3571 38.9042 31.297 38.6326 31.2892 38.3545C31.2879 38.2892 31.2722 38.224 31.2631 38.1587C31.2435 38.036 31.2226 37.9145 31.2318 37.7892C31.2318 37.767 31.2292 37.7448 31.2252 37.7239C31.2017 37.4472 31.1939 37.1704 31.203 36.8936C31.2057 36.8792 31.2057 36.8636 31.203 36.8492C31.1795 36.7187 31.1952 36.5881 31.2017 36.4575C31.2148 36.2017 31.25 35.9497 31.3219 35.7029C31.3754 35.528 31.4198 35.3517 31.455 35.1716C31.4772 35.0502 31.5112 34.93 31.5542 34.8138C31.6326 34.6102 31.7096 34.4039 31.8114 34.2094C31.9107 34.0135 32.0295 33.8308 32.1679 33.6597C32.2749 33.5305 32.3767 33.3973 32.476 33.2628C32.5843 33.1153 32.7031 32.9782 32.8324 32.849C32.9473 32.7367 33.053 32.6179 33.1535 32.4939C33.3102 32.2915 33.4812 32.1035 33.6418 31.9038C33.6601 31.8816 33.6784 31.8581 33.694 31.8346C33.8155 31.6609 33.9382 31.4886 34.0544 31.3123C34.117 31.221 34.1693 31.1257 34.2137 31.0251C34.2541 30.9324 34.305 30.8423 34.3547 30.7523C34.4434 30.5852 34.5296 30.4167 34.5897 30.2353C34.6301 30.1191 34.6797 30.0042 34.7372 29.8945C34.7855 29.7966 34.8273 29.6948 34.8638 29.5916C34.95 29.3514 35.0322 29.1086 35.1158 28.8683C35.1328 28.82 35.1445 28.7691 35.1563 28.7195C35.1993 28.5354 35.2555 28.354 35.2881 28.1673C35.3077 28.0589 35.3325 27.9532 35.3638 27.8474C35.3913 27.7417 35.4135 27.6346 35.4291 27.5262C35.4592 27.3461 35.497 27.1685 35.5375 26.9897C35.591 26.7481 35.6302 26.5027 35.6733 26.2585C35.715 26.0209 35.7516 25.7833 35.7908 25.5457C35.796 25.5013 35.8051 25.4582 35.8182 25.4165C35.8508 25.3264 35.8639 25.2337 35.8769 25.1384C35.8795 25.124 35.8808 25.1097 35.8848 25.0953C35.9396 24.8838 35.9905 24.671 36.0362 24.4582C36.0545 24.3772 36.0976 24.3093 36.142 24.2415C36.189 24.1683 36.2347 24.0939 36.2803 24.0195C36.3339 23.9333 36.4018 23.8563 36.467 23.778C36.5323 23.6997 36.6002 23.6226 36.6851 23.5639C36.7216 23.5391 36.7556 23.5103 36.7856 23.479C36.907 23.3498 37.0467 23.2466 37.2073 23.1709C37.2269 23.1618 37.2465 23.15 37.2634 23.137C37.4097 23.0286 37.5702 22.9398 37.7334 22.8576C37.7922 22.8275 37.8457 22.791 37.9084 22.7688C37.9919 22.7362 38.0624 22.6852 38.1186 22.616C38.1734 22.5482 38.2426 22.4907 38.2726 22.4045C38.2909 22.3497 38.2596 22.2792 38.2034 22.2648C38.1891 22.2609 38.1747 22.257 38.1603 22.2544C38.1395 22.2518 38.1173 22.2505 38.0951 22.2505C38.0585 22.2505 38.022 22.2531 37.9867 22.2583C37.7635 22.2962 37.5402 22.334 37.3183 22.3784C37.2256 22.398 37.1329 22.4202 37.0389 22.4215C36.9305 22.4228 36.843 22.4763 36.7503 22.5181C36.7438 22.522 36.7373 22.526 36.7321 22.5312C36.6498 22.6226 36.5428 22.6918 36.4762 22.7988C36.4448 22.8484 36.4096 22.8941 36.3809 22.945C36.2582 23.1696 36.1185 23.385 36.0088 23.6148C35.9762 23.6801 35.9474 23.7467 35.9226 23.8158C35.8991 23.885 35.8639 23.949 35.8182 24.0065C35.7229 24.1357 35.6184 24.2571 35.5062 24.3707C35.339 24.5352 35.1772 24.7023 34.9931 24.8498C34.9017 24.9543 34.7946 25.0418 34.6928 25.1358C34.5609 25.2611 34.4343 25.3903 34.2972 25.5118C34.1392 25.6541 33.9982 25.8107 33.8729 25.9818C33.8037 26.0758 33.7345 26.1685 33.664 26.2625C33.5113 26.4674 33.3742 26.6828 33.2528 26.9074C33.1705 27.0536 33.0857 27.1972 33.0021 27.3422C32.993 27.3604 32.9799 27.3643 32.9629 27.3513C32.9512 27.3448 32.9433 27.333 32.9394 27.32C32.9368 27.2325 32.9329 27.145 32.9355 27.0575C32.9407 26.8748 32.9316 26.692 32.9225 26.5105C32.9159 26.4152 32.9094 26.3212 32.9172 26.2259C32.9185 26.1672 32.9172 26.1097 32.912 26.051C32.9042 25.8904 32.9081 25.7298 32.9238 25.5705C32.9342 25.4465 32.942 25.3225 32.946 25.1984C32.9538 24.9935 32.9838 24.7911 33.0191 24.59C33.0504 24.4177 33.0804 24.2454 33.1092 24.0717C33.1327 23.9203 33.1705 23.7728 33.224 23.6278C33.2802 23.4777 33.3246 23.3237 33.3703 23.1696C33.3912 23.0952 33.382 23.0247 33.3429 22.9568C33.318 22.9124 33.258 22.8876 33.2123 22.9072C33.1849 22.9176 33.1588 22.9294 33.134 22.945C33.006 23.0286 32.8833 23.1187 32.7802 23.2336C32.7123 23.3093 32.6365 23.3798 32.566 23.4516C32.4955 23.5247 32.4381 23.6096 32.3728 23.6892C32.1417 23.9673 31.9864 24.2885 31.8336 24.6122C31.7161 24.8642 31.626 25.1266 31.549 25.393C31.4237 25.829 31.2788 26.2572 31.1325 26.6855C31.0255 26.9962 30.9328 27.3108 30.8362 27.6255C30.7487 27.9101 30.6625 28.1973 30.5568 28.4767C30.5124 28.5929 30.4811 28.713 30.4419 28.8318C30.3257 29.1921 30.2147 29.5551 30.1064 29.918C30.0515 30.0995 29.9758 30.2744 29.9092 30.452C29.8466 30.6152 29.7904 30.781 29.7539 30.9533C29.7252 31.0956 29.6808 31.2353 29.6429 31.3763C29.5711 31.6531 29.5385 31.9351 29.5254 32.221C29.5241 32.2354 29.5254 32.2497 29.5267 32.2641C29.5541 32.4743 29.5802 32.6845 29.6116 32.8934C29.6272 32.9939 29.652 33.0944 29.6742 33.1937C29.6899 33.2655 29.7069 33.336 29.7265 33.4052C29.7669 33.554 29.8087 33.7015 29.8505 33.8477C29.8962 34.0175 29.9575 34.182 30.032 34.3399C30.109 34.4979 30.1756 34.6598 30.2487 34.8178C30.3714 35.0828 30.498 35.3452 30.6182 35.6115C30.72 35.8374 30.8035 36.0711 30.8858 36.3048C30.9171 36.3949 30.9615 36.481 30.9785 36.5724C30.9955 36.6651 30.9824 36.7617 30.9876 36.8557C30.9981 37.0607 31.002 37.2644 30.9981 37.4693C30.9915 37.8127 31.0307 38.1535 31.0816 38.4942C31.0921 38.566 31.1064 38.6378 31.1156 38.7096C31.1247 38.7893 31.1286 38.8702 31.1339 38.9498C31.1339 38.9603 31.1208 38.972 31.1117 38.9812C31.1104 38.9825 31.0973 38.9786 31.0921 38.9733C30.9694 38.8376 30.8767 38.6796 30.7892 38.519C30.7344 38.4172 30.69 38.3088 30.6351 38.2057C30.4954 37.9393 30.4014 37.6547 30.2865 37.3793C30.2317 37.2448 30.1912 37.1038 30.1416 36.9667C30.0489 36.7056 29.9484 36.4471 29.8414 36.1912C29.7813 36.0502 29.7265 35.9079 29.6795 35.7617C29.6129 35.5528 29.5411 35.3452 29.4693 35.1389C29.4405 35.0567 29.4053 34.9757 29.3674 34.8974C29.2969 34.7447 29.2199 34.5958 29.1337 34.4509C29.122 34.4339 29.1102 34.4143 29.0998 34.3961C29.0397 34.2446 28.9418 34.1167 28.853 33.9835C28.7669 33.8556 28.7081 33.7146 28.6389 33.5775C28.618 33.5305 28.5945 33.4861 28.5658 33.443C28.4039 33.2185 28.246 32.99 28.0736 32.7733C27.9692 32.6427 27.8634 32.5108 27.7368 32.3999C27.725 32.3907 27.7146 32.3803 27.7055 32.3685C27.601 32.2262 27.4613 32.1179 27.3464 31.986C27.2838 31.9155 27.2107 31.8542 27.1415 31.7902C27.0279 31.687 26.9104 31.5878 26.8007 31.4821C26.7067 31.3907 26.6179 31.2928 26.5344 31.1909C26.4247 31.0538 26.2955 30.9363 26.1727 30.8123C26.0552 30.6922 25.9208 30.5891 25.8202 30.4546C25.6936 30.3528 25.6048 30.217 25.4821 30.1112C25.4103 30.0486 25.3359 29.9911 25.2589 29.9363C25.1557 29.8671 25.046 29.807 24.9455 29.7365C24.8829 29.6922 24.815 29.67 24.7458 29.6491C24.6727 29.6282 24.6009 29.6321 24.5317 29.6621C24.469 29.683 24.4337 29.7248 24.4259 29.7901C24.4168 29.8488 24.4194 29.9063 24.4311 29.965C24.4742 30.1791 24.529 30.3906 24.5969 30.5995C24.6479 30.751 24.6949 30.9037 24.7314 31.0617C24.7693 31.2249 24.8189 31.3855 24.8659 31.546C24.8776 31.5878 24.8985 31.627 24.9142 31.6688C25.0108 31.9351 25.11 32.2027 25.2027 32.4704C25.2589 32.6297 25.3111 32.7889 25.3529 32.9521C25.409 33.1715 25.4886 33.383 25.5748 33.5918C25.6127 33.6872 25.6584 33.7785 25.7119 33.866C25.8764 34.1245 26.0043 34.4065 26.1975 34.6454ZM31.9224 33.7433C31.9224 33.7289 31.9237 33.7159 31.9276 33.7028C31.9342 33.6858 31.9485 33.6845 31.9577 33.6976C31.959 33.7002 31.9524 33.7107 31.9472 33.7146C31.9368 33.7237 31.9263 33.7328 31.9159 33.7407C31.9237 33.772 31.9146 33.7968 31.8898 33.8151C31.8741 33.8282 31.8571 33.8412 31.8389 33.8517C31.8402 33.8647 31.8402 33.8778 31.8389 33.8908C31.8375 33.8973 31.8323 33.9026 31.8271 33.9065C31.8219 33.9091 31.8154 33.9104 31.8101 33.9078C31.7997 33.9026 31.801 33.8908 31.814 33.8791C31.8232 33.8699 31.8349 33.8634 31.8454 33.8543C31.8362 33.8229 31.8506 33.7994 31.8728 33.7812C31.8885 33.7681 31.9054 33.755 31.9224 33.7433ZM31.9524 33.1819C31.9224 33.2041 31.8989 33.2315 31.8832 33.2655C31.8506 33.3294 31.8154 33.3934 31.7801 33.4574C31.7775 33.4613 31.7684 33.4639 31.7618 33.4652C31.7435 33.4704 31.7318 33.4613 31.7344 33.4417C31.7514 33.2811 31.7905 33.1271 31.8506 32.9769C31.8819 32.9025 31.9133 32.8281 31.9289 32.7498C31.9511 32.6505 31.9785 32.5526 32.0125 32.456C32.0543 32.332 32.0869 32.204 32.1417 32.0839C32.1887 31.875 32.284 31.6857 32.3728 31.4938C32.519 31.1766 32.6705 30.8606 32.818 30.5434C32.8376 30.4964 32.8559 30.4481 32.8702 30.3998C32.8742 30.3854 32.8742 30.371 32.8715 30.3567C32.8663 30.3423 32.8585 30.3319 32.8467 30.3227C32.8337 30.3123 32.818 30.3162 32.8102 30.3332C32.7945 30.3658 32.7802 30.3998 32.7658 30.4324C32.6953 30.61 32.617 30.7823 32.5295 30.9507C32.5177 30.969 32.5047 30.986 32.489 31.0016C32.4864 31.0055 32.476 31.0042 32.4694 31.0029C32.4629 31.0003 32.459 30.9951 32.4577 30.9899C32.4499 30.952 32.4603 30.9168 32.4734 30.8828C32.5243 30.7536 32.5765 30.6256 32.6287 30.4977C32.6561 30.4298 32.6901 30.3645 32.7123 30.2953C32.7632 30.1347 32.8285 29.9807 32.9068 29.8318C32.9538 29.7405 32.9969 29.6478 33.04 29.5551C33.1627 29.2913 33.2867 29.0263 33.3938 28.7548C33.4604 28.585 33.54 28.4205 33.6066 28.2508C33.6797 28.0602 33.7437 27.8657 33.8128 27.6738C33.8834 27.474 33.9512 27.2743 34.027 27.0758C34.0674 26.9675 34.1105 26.8591 34.1445 26.7468C34.211 26.5458 34.2933 26.3512 34.3938 26.1645C34.5296 25.906 34.6706 25.6515 34.8299 25.406C34.8325 25.3995 34.8351 25.393 34.8364 25.3851C34.8416 25.3682 34.8364 25.3538 34.8194 25.3499C34.8064 25.3473 34.7868 25.346 34.779 25.3525C34.7137 25.4112 34.6497 25.4687 34.6079 25.5483C34.544 25.671 34.4669 25.7872 34.3899 25.9034C34.3547 25.9583 34.3233 26.0157 34.2972 26.0758C34.2554 26.1698 34.2215 26.2664 34.1771 26.3578C34.0674 26.581 33.9969 26.8199 33.9147 27.0536C33.8089 27.3565 33.7123 27.6633 33.5948 27.961C33.4747 28.2665 33.3703 28.5785 33.2293 28.8762C33.1366 29.0733 33.0582 29.2783 32.9538 29.4715C32.9368 29.5028 32.9225 29.5368 32.9068 29.5707C32.8624 29.67 32.8193 29.7705 32.7736 29.8697C32.7619 29.888 32.7462 29.9037 32.7292 29.9167C32.7253 29.9206 32.7136 29.9193 32.7084 29.9167C32.7018 29.9141 32.6979 29.9089 32.6966 29.9023C32.6927 29.8136 32.724 29.7313 32.7527 29.6491C32.7854 29.5525 32.8285 29.4585 32.8415 29.3566C32.848 29.3279 32.8572 29.2992 32.8689 29.2731C32.9303 29.1164 32.9956 28.961 33.07 28.8122C33.117 28.7208 33.1614 28.6281 33.2032 28.5354C33.2084 28.5263 33.2005 28.508 33.194 28.4963C33.1849 28.4806 33.1496 28.4806 33.1353 28.495C33.1144 28.5145 33.0961 28.5367 33.0817 28.5615C33.0165 28.6999 32.9525 28.8396 32.8885 28.978C32.8807 28.9911 32.8715 29.0015 32.8598 29.0107C32.8546 29.0159 32.848 29.0172 32.8415 29.0172C32.8259 29.0172 32.8154 29.0067 32.8193 28.9885C32.8493 28.8318 32.8742 28.6725 32.9329 28.5224C32.9864 28.3866 33.0439 28.2521 33.1039 28.119C33.1744 27.9584 33.2489 27.8004 33.322 27.6411C33.3259 27.6346 33.3259 27.6268 33.3246 27.6202C33.318 27.6085 33.3102 27.598 33.3011 27.5889C33.2945 27.585 33.2867 27.585 33.2802 27.5889C33.2319 27.615 33.2149 27.6659 33.194 27.7116C33.1222 27.8644 33.0569 28.0184 32.9864 28.1712C32.9655 28.2182 32.9381 28.26 32.9133 28.3043C32.9107 28.307 32.899 28.307 32.8937 28.3043C32.8885 28.3017 32.8807 28.2952 32.8807 28.29C32.8768 28.166 32.8911 28.0432 32.9251 27.9231C32.9277 27.9166 32.9303 27.9101 32.9329 27.9035C33.0112 27.7377 33.0635 27.5615 33.1366 27.3957C33.2058 27.2351 33.2945 27.0837 33.3807 26.9309C33.4551 26.7977 33.5504 26.6763 33.6222 26.5405C33.6484 26.4975 33.6784 26.4557 33.711 26.4152C33.7489 26.363 33.7933 26.3121 33.8285 26.2572C33.9604 26.0536 34.1314 25.8852 34.2946 25.7076C34.339 25.6593 34.386 25.6136 34.433 25.5679C34.544 25.4635 34.6589 25.3616 34.7685 25.2546C34.9343 25.0914 35.0923 24.919 35.2803 24.7793C35.2933 24.7702 35.3038 24.7611 35.3142 24.7506C35.4513 24.5992 35.6093 24.4673 35.7372 24.308C35.7412 24.3028 35.7477 24.2989 35.7542 24.295C35.7607 24.2924 35.7699 24.2885 35.7751 24.2911C35.7842 24.2989 35.8012 24.3093 35.7999 24.3185C35.7868 24.4699 35.7725 24.6227 35.7542 24.7741C35.7385 24.9047 35.7137 25.0339 35.7163 25.1671C35.7163 25.1958 35.715 25.2245 35.7098 25.2533C35.6733 25.5209 35.6472 25.7912 35.5949 26.0562C35.5114 26.4713 35.467 26.893 35.3547 27.3017C35.3064 27.5902 35.245 27.8761 35.1824 28.1607C35.1393 28.354 35.0975 28.5459 35.0401 28.7352C34.9735 28.9506 34.8965 29.1634 34.822 29.3775C34.7803 29.495 34.7385 29.6112 34.6902 29.7248C34.6132 29.9063 34.527 30.0838 34.4617 30.2692C34.4147 30.4011 34.3403 30.5186 34.2789 30.6439C34.1653 30.8802 34.0452 31.1139 33.8938 31.3293C33.7554 31.5265 33.6327 31.734 33.4734 31.9168C33.2906 32.1257 33.1131 32.3372 32.9394 32.5539C32.9107 32.5866 32.8807 32.6179 32.848 32.6466C32.6927 32.8007 32.5478 32.9652 32.4159 33.1401C32.3128 33.2798 32.2031 33.4169 32.0934 33.554C32.0765 33.5801 32.0504 33.5945 32.019 33.5945C32.0086 33.5631 32.0269 33.5383 32.0399 33.5148C32.1039 33.4078 32.1626 33.2981 32.237 33.1989C32.3467 33.054 32.4472 32.9012 32.5543 32.7537C32.6953 32.5565 32.8063 32.345 32.9303 32.1388C32.9551 32.0931 32.9773 32.0474 32.9969 32.0004C33.0047 31.9795 33.0099 31.9586 33.0125 31.9377C33.0125 31.9299 33.0099 31.9233 33.006 31.9168C32.993 31.9194 32.9734 31.9181 32.9682 31.9273C32.929 31.9952 32.8911 32.067 32.852 32.1375C32.801 32.2328 32.7488 32.3294 32.6835 32.4168C32.5478 32.5983 32.4107 32.7785 32.2775 32.96C32.1914 33.0788 32.1013 33.1937 32.0334 33.3242C32.0007 33.3895 31.9642 33.4522 31.9237 33.5135C31.908 33.5357 31.8806 33.5501 31.8571 33.567C31.8506 33.571 31.8428 33.571 31.8362 33.567C31.831 33.5618 31.8284 33.5553 31.8297 33.5488C31.8454 33.4535 31.895 33.3712 31.9342 33.285C31.9498 33.2524 31.9616 33.2172 31.9459 33.1806L31.9524 33.1819ZM29.934 36.8401C29.9497 36.8636 29.9654 36.8858 29.9797 36.9093C29.9824 36.9145 29.981 36.9236 29.9824 36.9302C29.9706 36.9262 29.9562 36.9236 29.9497 36.9158C29.9301 36.8936 29.921 36.8675 29.9406 36.8401C29.9092 36.7918 29.8688 36.7474 29.8479 36.6938C29.8113 36.6051 29.7565 36.528 29.7069 36.4458C29.656 36.357 29.6129 36.2643 29.558 36.1795C29.4549 36.0202 29.3452 35.8635 29.2382 35.7082C29.216 35.6794 29.1912 35.652 29.1651 35.6272C29.1612 35.6233 29.152 35.6246 29.1442 35.622C29.1429 35.6298 29.1377 35.6377 29.1403 35.6442C29.1886 35.7421 29.2408 35.8361 29.2995 35.9288C29.421 36.1181 29.558 36.2996 29.6533 36.5058C29.7748 36.6821 29.8466 36.8805 29.921 37.079C29.9445 37.1417 29.9602 37.2056 29.9889 37.2644C30.075 37.4419 30.1338 37.6299 30.1991 37.8153C30.2069 37.8349 30.1991 37.844 30.1756 37.8388C30.0764 37.7252 29.9589 37.6156 29.8622 37.4863C29.7839 37.3819 29.7043 37.2774 29.6246 37.1717C29.5894 37.126 29.558 37.0751 29.5163 37.0359C29.4288 36.9563 29.3635 36.8583 29.2917 36.767C29.2251 36.6808 29.1638 36.5868 29.0867 36.5111C28.9967 36.4236 28.9209 36.327 28.8413 36.2317C28.8087 36.1925 28.7708 36.1573 28.7369 36.1207C28.7055 36.0894 28.6768 36.0567 28.6494 36.0228C28.528 35.8583 28.3974 35.7003 28.259 35.5502C28.1337 35.417 28.0384 35.2603 27.9078 35.1311C27.6245 34.7512 27.3412 34.37 27.0762 33.9757C27.0579 33.9535 27.0422 33.9287 27.0292 33.9026C26.9939 33.8047 26.93 33.7237 26.8738 33.6388C26.7955 33.524 26.7145 33.4117 26.6623 33.2824C26.6584 33.2759 26.6545 33.2707 26.648 33.2668C26.6336 33.2563 26.6179 33.2563 26.6088 33.2681C26.5918 33.2916 26.5931 33.255 26.597 33.2837C26.6075 33.366 26.6427 33.4365 26.6845 33.5057C26.7172 33.5618 26.7589 33.6153 26.785 33.6754C26.8177 33.7485 26.8582 33.8177 26.9052 33.883C27.0214 34.0514 27.1375 34.2185 27.2524 34.3882C27.289 34.4431 27.3164 34.5031 27.3556 34.5553C27.3934 34.6089 27.4404 34.6546 27.4822 34.7042C27.4966 34.7212 27.5083 34.7407 27.5214 34.7577C27.6689 34.9575 27.8177 35.1559 27.9653 35.3557C28.0044 35.4079 28.0423 35.4627 28.0906 35.5084C28.1755 35.5893 28.2433 35.6847 28.3191 35.7721C28.3569 35.8165 28.3896 35.8661 28.4327 35.9053C28.4888 35.9627 28.541 36.0241 28.588 36.0881C28.6455 36.1638 28.7029 36.2408 28.7708 36.3061C28.84 36.3727 28.9027 36.4432 28.9588 36.5189C28.9888 36.5607 29.0202 36.6012 29.0554 36.6377C29.1925 36.7709 29.2982 36.9288 29.4144 37.079C29.4771 37.1599 29.5319 37.2461 29.5894 37.331C29.5946 37.3401 29.5907 37.3558 29.5907 37.3675C29.5829 37.3662 29.5737 37.3662 29.5698 37.3623C29.5489 37.3414 29.5306 37.3192 29.5097 37.2983C29.4419 37.2226 29.3648 37.156 29.2813 37.0986C29.2578 37.0855 29.2382 37.0894 29.2225 37.1116C29.216 37.1221 29.2082 37.143 29.2134 37.1508C29.229 37.1834 29.2499 37.2122 29.276 37.2383C29.3191 37.2774 29.3713 37.3062 29.4144 37.344C29.5163 37.4367 29.6285 37.5203 29.7017 37.6417C29.7043 37.6482 29.703 37.656 29.7056 37.6639C29.7082 37.6756 29.7043 37.6782 29.6925 37.6704C29.6351 37.6404 29.5815 37.6025 29.5332 37.5581C29.4484 37.4798 29.3609 37.4028 29.2734 37.3257C29.0554 37.1312 28.8374 36.9367 28.6193 36.7435C28.5319 36.6664 28.4457 36.5881 28.353 36.5176C28.2368 36.4288 28.1154 36.3466 27.9901 36.2722C27.8204 36.1729 27.6611 36.0593 27.5122 35.9301C27.3647 35.8008 27.2054 35.682 27.0866 35.5228C27.071 35.5058 27.0553 35.4914 27.0383 35.4771C26.943 35.3778 26.8438 35.2799 26.7524 35.1768C26.6845 35.0998 26.6284 35.0136 26.5631 34.9353C26.4926 34.8517 26.4156 34.7747 26.3477 34.6898C26.2498 34.571 26.1623 34.4457 26.0866 34.3112C25.9965 34.1532 25.909 33.9927 25.8215 33.8334C25.7067 33.6284 25.6127 33.4156 25.5422 33.1923C25.5082 33.0801 25.4782 32.9665 25.4351 32.8581C25.4025 32.7772 25.3803 32.6936 25.3555 32.6101C25.3176 32.4769 25.2784 32.345 25.2262 32.2145C25.1361 31.9847 25.0408 31.7549 24.9834 31.5121C24.9755 31.4768 24.9599 31.4442 24.9481 31.409C24.9272 31.3476 24.8998 31.2862 24.8881 31.2223C24.8372 30.9494 24.7458 30.687 24.6596 30.4246C24.6126 30.2705 24.5774 30.1138 24.5565 29.9546C24.5525 29.918 24.5539 29.8815 24.5591 29.8449C24.5617 29.8097 24.5956 29.7809 24.6322 29.7757C24.7157 29.7613 24.7928 29.777 24.862 29.824C24.9481 29.8802 25.0317 29.9389 25.1165 29.995C25.3463 30.1426 25.5395 30.3306 25.7197 30.5303C25.8229 30.6452 25.9312 30.7536 26.0422 30.858C26.2171 31.0251 26.3829 31.2001 26.5448 31.3763C26.7224 31.5708 26.9065 31.7562 27.1023 31.9312C27.2381 32.0526 27.3647 32.1845 27.4953 32.3111C27.5736 32.4273 27.678 32.5187 27.776 32.6166C27.8935 32.7367 28.0005 32.8647 28.0971 33.003C28.1259 33.0448 28.1585 33.084 28.1885 33.1258C28.2825 33.2563 28.3752 33.3869 28.4692 33.5174C28.5019 33.5657 28.5293 33.6167 28.5528 33.6702C28.6089 33.7968 28.6729 33.9195 28.7421 34.0397C28.8413 34.2015 28.947 34.3595 29.041 34.524C29.1572 34.7277 29.2617 34.9353 29.3413 35.1559C29.4092 35.34 29.4693 35.528 29.5359 35.7134C29.6129 35.9262 29.6834 36.1416 29.7735 36.3479C29.8374 36.4954 29.8844 36.6482 29.9419 36.7983C29.9458 36.8087 29.9367 36.8257 29.934 36.8388V36.8401ZM31.2853 34.2042C31.2592 34.2237 31.25 34.2498 31.2566 34.2812C31.2827 34.4496 31.2683 34.6167 31.237 34.7825C31.2109 34.9261 31.1874 35.0697 31.1613 35.2133C31.16 35.2238 31.1456 35.2329 31.1378 35.2421C31.1286 35.2329 31.1117 35.2238 31.1104 35.2133C31.0973 35.0319 31.0829 34.8491 31.0764 34.6676C31.0712 34.5292 31.0725 34.3895 31.0738 34.2512C31.0764 34.0253 31.0751 33.7981 31.1064 33.5736C31.1195 33.4874 31.1273 33.3999 31.1365 33.3125C31.156 33.131 31.1665 32.9495 31.1665 32.7667C31.1691 32.7223 31.1743 32.6793 31.1809 32.6362C31.2109 32.4051 31.254 32.174 31.2657 31.9403C31.2683 31.8672 31.2814 31.7954 31.3049 31.7262C31.3506 31.5852 31.3715 31.4416 31.3937 31.298C31.4459 30.9651 31.4968 30.6335 31.5777 30.3071C31.5908 30.2575 31.5986 30.2078 31.6091 30.1569C31.69 29.7196 31.7684 29.2809 31.8519 28.8435C31.9381 28.3997 31.9994 27.9505 32.0373 27.5001C32.0386 27.4779 32.0347 27.457 32.0242 27.4375C32.0203 27.427 32.002 27.4218 31.989 27.4179C31.9851 27.4166 31.9759 27.4244 31.9733 27.4309C31.9407 27.5197 31.9329 27.615 31.9211 27.709C31.8924 27.9257 31.8715 28.1425 31.8258 28.3579C31.7892 28.5289 31.7631 28.7025 31.7331 28.8749C31.69 29.1203 31.6495 29.3645 31.6065 29.6086C31.5856 29.7235 31.5634 29.8384 31.5412 29.9533C31.532 29.9963 31.5138 30.0368 31.5072 30.0799C31.4433 30.4389 31.3819 30.7993 31.3205 31.1583C31.2997 31.2732 31.2892 31.392 31.2553 31.503C31.1887 31.7132 31.1665 31.9312 31.143 32.1492C31.1299 32.2719 31.1195 32.396 31.0999 32.5187C31.0842 32.6192 31.079 32.721 31.0725 32.8229C31.0581 33.0487 31.049 33.2746 31.0137 33.4978C30.9929 33.6206 30.9824 33.7433 30.9824 33.8686C30.9863 34.0436 30.9837 34.2172 30.9746 34.3922C30.9628 34.6258 30.9811 34.8595 31.002 35.0919C31.0177 35.2747 31.0137 35.4562 31.0111 35.639C31.0098 35.6455 31.0072 35.652 31.0007 35.6572C30.9889 35.6533 30.972 35.6494 30.9667 35.6403C30.9485 35.6089 30.9328 35.5763 30.921 35.5423C30.8832 35.4314 30.8466 35.3204 30.8101 35.2094C30.7748 35.1063 30.7357 35.0032 30.7043 34.8987C30.6625 34.7577 30.6247 34.618 30.5907 34.4757C30.5307 34.2355 30.4602 33.9966 30.451 33.7459C30.451 33.7315 30.4458 33.7172 30.4445 33.7028C30.4249 33.4783 30.3805 33.255 30.3962 33.0265C30.3949 33.02 30.3936 33.0135 30.391 33.007C30.3897 32.9848 30.3792 32.9782 30.3584 32.9874C30.3518 32.9887 30.3453 32.9939 30.3414 33.0004C30.3114 33.0683 30.31 33.1414 30.3153 33.2145C30.3257 33.3895 30.3388 33.5631 30.357 33.7381C30.391 34.0357 30.4458 34.3295 30.5215 34.6193C30.5659 34.7969 30.609 34.9744 30.6756 35.1442C30.7487 35.3348 30.8035 35.5319 30.8623 35.7277C30.874 35.7682 30.8832 35.8087 30.8727 35.8505C30.8662 35.8478 30.8571 35.8452 30.8545 35.84C30.7827 35.6886 30.7122 35.5371 30.6417 35.3844C30.5568 35.2003 30.4706 35.0149 30.3858 34.8295C30.2931 34.6232 30.1978 34.4183 30.1064 34.212C30.0711 34.1323 30.0398 34.0501 30.0124 33.9665C29.9628 33.8073 29.9184 33.6454 29.8688 33.4848C29.8218 33.3386 29.7852 33.1897 29.7578 33.0383C29.7447 32.96 29.733 32.8803 29.716 32.8007C29.6808 32.6362 29.669 32.4691 29.6533 32.302C29.6455 32.2001 29.6507 32.0983 29.6677 31.9965C29.6782 31.9247 29.6886 31.8515 29.6938 31.7784C29.703 31.6479 29.7252 31.5186 29.7604 31.3907C29.8126 31.2014 29.8609 31.0095 29.9132 30.8202C29.9458 30.7 29.985 30.5838 30.0307 30.4677C30.0685 30.3737 30.1025 30.277 30.1338 30.1791C30.186 30.0198 30.2395 29.8606 30.2865 29.7C30.3636 29.4337 30.455 29.1712 30.5398 28.9075C30.5646 28.8318 30.5868 28.7535 30.6129 28.679C30.7148 28.397 30.8035 28.1124 30.891 27.8252C30.9119 27.756 30.9393 27.6881 30.9576 27.6176C31.0098 27.4048 31.0686 27.1946 31.1521 26.991C31.1743 26.9374 31.1913 26.8813 31.2096 26.8265C31.2409 26.7285 31.2683 26.6306 31.301 26.534C31.348 26.3956 31.4002 26.2585 31.4446 26.1202C31.519 25.8904 31.583 25.6593 31.6561 25.4295C31.7344 25.1788 31.7997 24.9243 31.9263 24.6919C31.9329 24.6788 31.9368 24.6645 31.9433 24.6514C32.0712 24.3629 32.2331 24.0952 32.4107 23.8354C32.4355 23.8002 32.4629 23.7649 32.4916 23.7323C32.6287 23.5808 32.7645 23.4294 32.9055 23.2806C32.989 23.1879 33.0896 23.1148 33.2032 23.0638C33.2267 23.0534 33.2671 23.0821 33.2645 23.1095C33.2632 23.1448 33.258 23.1813 33.2489 23.2166C33.2293 23.2871 33.2032 23.355 33.1797 23.4242C33.13 23.5769 33.0791 23.7297 33.0308 23.8824C33.0152 23.9242 33.006 23.966 33.0034 24.0104C33.0034 24.0835 32.9851 24.154 32.9721 24.2258C32.9447 24.3838 32.9199 24.5417 32.8846 24.6984C32.8755 24.7415 32.8715 24.7859 32.8689 24.829C32.8533 25.0183 32.8441 25.2076 32.8219 25.3956C32.8063 25.5627 32.7984 25.7311 32.801 25.8982C32.7984 26.3943 32.8298 26.8904 32.8193 27.3865C32.8154 27.5772 32.8102 27.7665 32.7919 27.9545C32.7723 28.1581 32.7527 28.3618 32.7188 28.5642C32.6744 28.837 32.6339 29.1112 32.5922 29.3853C32.5765 29.4937 32.5621 29.6021 32.5478 29.7117C32.5373 29.7901 32.5373 29.8723 32.5217 29.9507C32.4786 30.1804 32.4303 30.4089 32.3833 30.6374C32.3767 30.6726 32.3611 30.7066 32.3519 30.7418C32.284 30.9729 32.2149 31.204 32.1522 31.4364C32.0725 31.7314 32.006 32.0304 31.8989 32.3189C31.8911 32.3385 31.8872 32.3607 31.8819 32.3816C31.8415 32.5304 31.8088 32.6806 31.7618 32.8255C31.707 33.0004 31.6522 33.1728 31.6117 33.3516C31.5438 33.6506 31.4524 33.943 31.3819 34.2407C31.3793 34.2472 31.3754 34.2538 31.3715 34.2603C31.3636 34.276 31.3493 34.2812 31.3362 34.2681C31.3153 34.2485 31.2984 34.225 31.2788 34.2028L31.2853 34.2042ZM37.3901 22.8902C37.377 22.8837 37.364 22.8758 37.3522 22.8667C37.317 22.8262 37.2765 22.8249 37.236 22.851C37.1851 22.8811 37.1368 22.9137 37.0911 22.949C36.971 23.0443 36.8561 23.1435 36.7438 23.2466C36.6185 23.3602 36.5101 23.4868 36.4031 23.6135C36.3822 23.6344 36.3652 23.6579 36.3535 23.6853C36.3221 23.7702 36.2516 23.8263 36.202 23.8981C36.1968 23.9072 36.1772 23.9059 36.1642 23.9112C36.1615 23.9033 36.1602 23.8968 36.1602 23.889C36.1759 23.8093 36.1994 23.731 36.2529 23.6709C36.3495 23.5613 36.4213 23.432 36.5349 23.338C36.5454 23.3276 36.5519 23.3145 36.5532 23.3002C36.5532 23.2858 36.5506 23.274 36.5441 23.2623C36.5428 23.2597 36.5284 23.2597 36.5232 23.2623C36.4723 23.2806 36.4383 23.3197 36.407 23.3589C36.3691 23.4033 36.3339 23.449 36.2817 23.479C36.2699 23.4816 36.2582 23.4816 36.2464 23.4777C36.2425 23.4712 36.2425 23.4647 36.2438 23.4568C36.3039 23.3406 36.36 23.2218 36.4279 23.1095C36.4892 23.0116 36.5584 22.9163 36.6328 22.8275C36.7517 22.6826 36.894 22.5782 37.0924 22.5625C37.2164 22.5534 37.3378 22.5312 37.458 22.4998C37.6068 22.4594 37.7582 22.4437 37.9084 22.4137C37.9515 22.4072 37.9945 22.4045 38.0376 22.4058C38.0494 22.4058 38.0611 22.4202 38.0716 22.4293C38.0742 22.4359 38.0742 22.4424 38.0716 22.4489C38.0115 22.5534 37.9345 22.6356 37.8144 22.6709C37.7804 22.6813 37.7491 22.7022 37.7165 22.7192C37.6642 22.7453 37.6133 22.7727 37.5611 22.7975C37.5023 22.8262 37.4514 22.8706 37.3901 22.8902ZM30.9354 36.0241C30.925 36.0097 30.9276 36.0032 30.9406 36.0071C30.9432 36.0084 30.9445 36.0163 30.9472 36.0215L30.9354 36.0241Z" fill="#D6A553"/>
</g>
<path d="M30.9899 29.478C30.9755 29.4937 30.9638 29.5107 30.9546 29.5302C30.8684 29.73 30.781 29.9311 30.7157 30.1399C30.7131 30.1465 30.7118 30.153 30.7092 30.1608C30.6831 30.3188 30.6282 30.4702 30.576 30.6217C30.5695 30.6426 30.5643 30.6635 30.5603 30.6844C30.4729 31.1504 30.3906 31.6165 30.3319 32.0852C30.3279 32.1296 30.3253 32.1727 30.324 32.2158C30.3227 32.3111 30.3227 32.4051 30.3044 32.4991C30.3018 32.5278 30.3018 32.5565 30.3071 32.5852C30.3071 32.6101 30.3201 32.627 30.3436 32.6336C30.3697 32.6375 30.3867 32.627 30.3932 32.6022C30.4011 32.5826 30.4063 32.5617 30.4102 32.5396C30.4206 32.4677 30.4285 32.3946 30.4311 32.3228C30.4324 32.2132 30.4428 32.1048 30.4611 31.9964C30.4663 31.9756 30.4689 31.9534 30.4689 31.9312C30.4637 31.7849 30.5042 31.6439 30.5173 31.499C30.5186 31.4847 30.5199 31.4703 30.5225 31.4559C30.5499 31.3202 30.5943 31.1883 30.6073 31.0499C30.6204 30.9115 30.6635 30.7797 30.6896 30.6439C30.7026 30.5721 30.7301 30.5029 30.7496 30.4337C30.8149 30.2104 30.8724 29.9846 30.9494 29.7652C30.9807 29.6752 31.0108 29.5864 31.0421 29.4963C31.0421 29.4898 31.0382 29.4832 31.0329 29.4806C31.0186 29.478 31.0042 29.478 30.9899 29.478Z" fill="#D6A553"/>
<path d="M32.6349 24.0654C32.6296 24.0693 32.6205 24.072 32.6179 24.0785C32.6088 24.0981 32.6009 24.1177 32.5944 24.1385C32.5409 24.3043 32.4873 24.4715 32.4364 24.6386C32.4195 24.6947 32.4051 24.7508 32.3946 24.8083C32.3725 24.9153 32.3463 25.0211 32.315 25.1255C32.2745 25.2652 32.2445 25.4075 32.2275 25.5525C32.2066 25.7183 32.1818 25.8841 32.1675 26.0512C32.1688 26.0721 32.1727 26.093 32.1805 26.1125C32.1818 26.1178 32.191 26.1204 32.1975 26.1217C32.204 26.1217 32.2106 26.1191 32.2158 26.1152C32.2223 26.1112 32.2275 26.106 32.2301 26.0995C32.2419 26.0721 32.2497 26.0447 32.2536 26.0159C32.2667 25.8044 32.3255 25.5995 32.3542 25.3906C32.3594 25.354 32.3659 25.3188 32.3751 25.2835C32.4704 24.9101 32.5383 24.5289 32.6714 24.1647C32.6806 24.1372 32.6884 24.1072 32.6701 24.0811C32.6636 24.072 32.6466 24.0707 32.6349 24.0654Z" fill="#D6A553"/>
<path d="M32.0438 27.064C32.0503 27.0679 32.0555 27.0706 32.0633 27.0719C32.0699 27.0719 32.0751 27.0706 32.0803 27.0666C32.0868 27.0614 32.0908 27.0562 32.0934 27.0497C32.1404 26.9126 32.1665 26.7703 32.1704 26.6254C32.1704 26.6136 32.156 26.6006 32.1469 26.5927C32.1325 26.581 32.0999 26.5979 32.096 26.6188C32.0751 26.7546 32.0268 26.8852 32.0294 27.0236C32.032 27.0379 32.0372 27.051 32.0438 27.064Z" fill="#D6A553"/>
<path d="M31.2782 34.2031C31.2835 34.1901 31.2926 34.177 31.2913 34.1653C31.29 34.1548 31.2756 34.1483 31.2678 34.1392C31.2639 34.1431 31.2573 34.1457 31.2573 34.1496C31.256 34.1574 31.2573 34.164 31.26 34.1705C31.2678 34.1822 31.2756 34.1927 31.2848 34.2044L31.2782 34.2031Z" fill="#D6A553"/>
<path d="M25.2285 30.6986C25.2024 30.6399 25.1776 30.5798 25.1489 30.5211C25.145 30.5119 25.1254 30.508 25.1123 30.5054C25.0953 30.5041 25.0692 30.5367 25.0731 30.5498C25.0758 30.5642 25.0797 30.5785 25.0849 30.5916C25.1841 30.76 25.2625 30.9415 25.3826 31.0968C25.3917 31.1086 25.3995 31.1203 25.4048 31.1347C25.4596 31.2783 25.5497 31.4023 25.6306 31.5303C25.6502 31.5616 25.6672 31.5929 25.6815 31.6269C25.722 31.7209 25.7834 31.8018 25.8434 31.8841C25.8552 31.8997 25.8708 31.8997 25.8774 31.888C25.8839 31.8749 25.8878 31.8619 25.8865 31.8475C25.8852 31.8332 25.88 31.8201 25.8721 31.807C25.7821 31.6504 25.692 31.4937 25.6019 31.337C25.5888 31.3188 25.5784 31.2992 25.5706 31.2783C25.5445 31.1856 25.4844 31.1112 25.4322 31.0329C25.3604 30.9245 25.286 30.8174 25.2285 30.6986Z" fill="#D6A553"/>
<path d="M26.2629 32.4901C26.2434 32.4705 26.229 32.4549 26.2133 32.4405C26.2068 32.4366 26.2016 32.434 26.1937 32.4366C26.1781 32.4418 26.1689 32.4549 26.1755 32.4692C26.2564 32.6377 26.3387 32.8048 26.4209 32.9732C26.4248 32.981 26.4301 32.9862 26.4366 32.9888C26.4496 32.9941 26.4627 32.9954 26.4771 32.9928C26.4888 32.9862 26.4979 32.9758 26.5019 32.9627C26.5071 32.9484 26.5071 32.934 26.5006 32.921C26.4209 32.7747 26.3413 32.6298 26.2629 32.4901Z" fill="#D6A553"/>
<path d="M32.0503 32.9443C32.1143 32.8803 32.16 32.8085 32.1456 32.7119L32.1534 32.7132C32.1077 32.7563 32.0829 32.8124 32.0581 32.8686C32.0464 32.8947 32.0464 32.9208 32.0581 32.9469L32.0503 32.9443Z" fill="#D6A553"/>
<path d="M31.9443 33.1807C31.9966 33.1442 32.0253 33.0985 31.9992 33.0332L32.007 33.0345C31.9626 33.0737 31.9378 33.1207 31.9522 33.182L31.9443 33.1807Z" fill="#D6A553"/>
<path d="M32.1976 32.6232C32.225 32.5997 32.2407 32.5709 32.2485 32.537C32.2498 32.5305 32.2524 32.5187 32.2485 32.5174C32.2329 32.507 32.2211 32.5109 32.2146 32.5292C32.1989 32.5605 32.1872 32.5918 32.2041 32.6258L32.1976 32.6232Z" fill="#D6A553"/>
<path d="M32.2056 32.6257C32.1729 32.6452 32.1507 32.6714 32.1533 32.7131L32.1455 32.7105C32.1768 32.6909 32.2003 32.6648 32.1977 32.623L32.2056 32.6257Z" fill="#D6A553"/>
<path d="M32.0583 32.9469C32.0269 32.9678 31.9982 32.99 32.0073 33.0344L31.9995 33.0331C32.0335 33.0135 32.0583 32.9887 32.0504 32.9443L32.0583 32.9469Z" fill="#D6A553"/>
</svg>
